<mxfile host="app.diagrams.net" modified="2024-01-17T08:24:32.232Z" agent="Mozilla/5.0 (Macintosh; Intel Mac OS X 10_15_7) AppleWebKit/605.1.15 (KHTML, like Gecko) Version/16.4 Safari/605.1.15" etag="8Cp0l_JDANl91hXM9JzG" version="22.1.20" type="github">
  <diagram name="第 1 页" id="gcFASdXdLr-sJ9OIwdqH">
    <mxGraphModel dx="954" dy="675" grid="1" gridSize="10" guides="1" tooltips="1" connect="1" arrows="1" fold="1" page="1" pageScale="1" pageWidth="1100" pageHeight="850" math="0" shadow="0">
      <root>
        <mxCell id="0" />
        <mxCell id="1" parent="0" />
        <mxCell id="SEG9erpF0mwY1YkcLR5i-1" value="" style="shape=image;verticalLabelPosition=bottom;labelBackgroundColor=default;verticalAlign=top;aspect=fixed;imageAspect=0;image=data:image/png,iVBORw0KGgoAAAANSUhEUgAAA4wAAACOCAYAAAB66oY0AAAMPmlDQ1BJQ0MgUHJvZmlsZQAASImVVwdYU8kWnltSIbQAAlJCb4JIDSAlhBZAercRkgChxBgIKnZkUcG1oGIBG7oqothpdsTOotj7YkFFWRcLduVNCui6r3xvvm/u/PefM/85c+7MvXcAUD/OFYtzUQ0A8kQFktiQAEZySiqD9BRgwAioADKw5vLyxazo6AgAy2D79/LuOkBk7RUHmdY/+/9r0eQL8nkAINEQp/PzeXkQHwAAr+aJJQUAEGW8+ZQCsQzDCrQlMECIF8hwpgJXy3C6Au+R28THsiFuA4CsyuVKMgFQuwR5RiEvE2qo9UHsJOILRQCoMyD2zcubxIc4DWIbaCOGWKbPTP9BJ/NvmulDmlxu5hBWzEVeyIHCfHEud9r/mY7/XfJypYM+rGBVzZKExsrmDPN2M2dSuAyrQtwrSo+MglgL4g9CvtweYpSaJQ1NUNijhrx8NswZ0IXYic8NDIfYEOJgUW5khJJPzxAGcyCGKwSdKizgxEOsB/ECQX5QnNJmo2RSrNIX2pAhYbOU/FmuRO5X5uu+NCeBpdR/nSXgKPUxtaKs+CSIqRBbFAoTIyFWg9gxPycuXGkzuiiLHTloI5HGyuK3gDhWIAoJUOhjhRmS4FilfVle/uB8sY1ZQk6kEu8ryIoPVeQHa+Nx5fHDuWCXBCJWwqCOID85YnAufEFgkGLu2DOBKCFOqfNBXBAQqxiLU8W50Up73EyQGyLjzSB2zS+MU47FEwvgglTo4xniguh4RZx4UTY3LFoRD74URAA2CAQMIIU1HUwC2UDY0dvYC+8UPcGACyQgEwiAg5IZHJEk7xHBaxwoAn9CJAD5Q+MC5L0CUAj5r0Os4uoAMuS9hfIROeAJxHkgHOTCe6l8lGjIWyJ4DBnhP7xzYeXBeHNhlfX/e36Q/c6wIBOhZKSDHhnqg5bEIGIgMZQYTLTFDXBf3BuPgFd/WJ1xJu45OI/v9oQnhE7CQ8I1Qhfh1kRhseSnKMeALqgfrMxF+o+5wK2gphsegPtAdaiM6+IGwAF3hX5YuB/07AZZtjJuWVYYP2n/bQY/PA2lHcWJglKGUfwpNj+PVLNTcxtSkeX6x/woYk0fyjd7qOdn/+wfss+HbfjPltgCbD92BjuBncMOY42AgR3DmrB27IgMD62ux/LVNegtVh5PDtQR/sPf4JOVZTLfqc6px+mLoq9AMFX2jgbsSeJpEmFmVgGDBb8IAgZHxHMcwXB2cnYBQPZ9Uby+3sTIvxuIbvt3bt4fAPgcGxgYOPSdCzsGwF4PuP2bv3M2TPjpUAHgbDNPKilUcLjsQoBvCXW40/SBMTAHNnA+zsAdeAN/EATCQBSIBylgAow+C65zCZgCZoC5oBSUg6VgJVgLNoDNYDvYBfaBRnAYnACnwQVwCVwDd+Dq6QYvQB94Bz4jCEJCaAgd0UdMEEvEHnFGmIgvEoREILFICpKGZCIiRIrMQOYh5UgFshbZhNQie5Fm5ARyDulEbiEPkB7kNfIJxVBVVBs1Qq3QkSgTZaHhaDw6Hs1EJ6NFaAm6GF2N1qA70Qb0BHoBvYZ2oS/QfgxgKpguZoo5YEyMjUVhqVgGJsFmYWVYJVaD1WMt8DlfwbqwXuwjTsTpOAN3gCs4FE/AefhkfBa+CF+Lb8cb8Db8Cv4A78O/EWgEQ4I9wYvAISQTMglTCKWESsJWwkHCKbiXugnviESiLtGa6AH3YgoxmziduIi4jribeJzYSXxE7CeRSPoke5IPKYrEJRWQSklrSDtJx0iXSd2kD2QVsgnZmRxMTiWLyMXkSvIO8lHyZfJT8meKBsWS4kWJovAp0yhLKFsoLZSLlG7KZ6om1ZrqQ42nZlPnUldT66mnqHepb1RUVMxUPFViVIQqc1RWq+xROavyQOWjqpaqnSpbdZyqVHWx6jbV46q3VN/QaDQrmj8tlVZAW0yrpZ2k3ad9UKOrOapx1Phqs9Wq1BrULqu9VKeoW6qz1CeoF6lXqu9Xv6jeq0HRsNJga3A1ZmlUaTRr3NDo16RrjtKM0szTXKS5Q/Oc5jMtkpaVVpAWX6tEa7PWSa1HdIxuTmfTefR59C30U/RubaK2tTZHO1u7XHuXdod2n46WjqtOos5UnSqdIzpdupiulS5HN1d3ie4+3eu6n4YZDWMNEwxbOKx+2OVh7/WG6/nrCfTK9HbrXdP7pM/QD9LP0V+m36h/zwA3sDOIMZhisN7glEHvcO3h3sN5w8uG7xt+2xA1tDOMNZxuuNmw3bDfyNgoxEhstMbopFGvsa6xv3G28Qrjo8Y9JnQTXxOhyQqTYybPGToMFiOXsZrRxugzNTQNNZWabjLtMP1sZm2WYFZsttvsnjnVnGmeYb7CvNW8z8LEYozFDIs6i9uWFEumZZblKsszlu+trK2SrOZbNVo9s9az5lgXWddZ37Wh2fjZTLapsblqS7Rl2ubYrrO9ZIfaudll2VXZXbRH7d3thfbr7DtHEEZ4jhCNqBlxw0HVgeVQ6FDn8MBR1zHCsdix0fHlSIuRqSOXjTwz8puTm1Ou0xanO6O0RoWNKh7VMuq1s50zz7nK+aoLzSXYZbZLk8srV3tXget615tudLcxbvPdWt2+unu4S9zr3Xs8LDzSPKo9bjC1mdHMRcyzngTPAM/Znoc9P3q5exV47fP6y9vBO8d7h/ez0dajBaO3jH7kY+bD9dnk0+XL8E3z3ejb5Wfqx/Wr8Xvob+7P99/q/5Rly8pm7WS9DHAKkAQcDHjP9mLPZB8PxAJDAssCO4K0ghKC1gbdDzYLzgyuC+4LcQuZHnI8lBAaHros9AbHiMPj1HL6wjzCZoa1hauGx4WvDX8YYRchiWgZg44JG7N8zN1Iy0hRZGMUiOJELY+6F20dPTn6UAwxJjqmKuZJ7KjYGbFn4uhxE+N2xL2LD4hfEn8nwSZBmtCaqJ44LrE28X1SYFJFUlfyyOSZyRdSDFKEKU2ppNTE1K2p/WODxq4c2z3ObVzpuOvjrcdPHX9ugsGE3AlHJqpP5E7cn0ZIS0rbkfaFG8Wt4fanc9Kr0/t4bN4q3gu+P38Fv0fgI6gQPM3wyajIeJbpk7k8syfLL6syq1fIFq4VvsoOzd6Q/T4nKmdbzkBuUu7uPHJeWl6zSEuUI2qbZDxp6qROsb24VNw12Wvyysl9knDJ1nwkf3x+U4E2/JFvl9pIf5E+KPQtrCr8MCVxyv6pmlNFU9un2U1bOO1pUXDRb9Px6bzprTNMZ8yd8WAma+amWcis9Fmts81nl8zunhMyZ/tc6tycub8XOxVXFL+dlzSvpcSoZE7Jo19CfqkrVSuVlN6Y7z1/wwJ8gXBBx0KXhWsWfivjl50vdyqvLP+yiLfo/K+jfl3968DijMUdS9yXrF9KXCpaen2Z37LtFZoVRRWPlo9Z3rCCsaJsxduVE1eeq3St3LCKukq6qmt1xOqmNRZrlq75sjZr7bWqgKrd1YbVC6vfr+Ovu7zef339BqMN5Rs+bRRuvLkpZFNDjVVN5Wbi5sLNT7YkbjnzG/O32q0GW8u3ft0m2ta1PXZ7W61Hbe0Owx1L6tA6aV3PznE7L+0K3NVU71C/abfu7vI9YI90z/O9aXuv7wvf17qfub/+gOWB6oP0g2UNSMO0hr7GrMauppSmzuaw5tYW75aDhxwPbTtserjqiM6RJUepR0uODhwrOtZ/XHy890TmiUetE1vvnEw+ebUtpq3jVPips6eDT588wzpz7KzP2cPnvM41n2eeb7zgfqGh3a394O9uvx/scO9ouOhxsemS56WWztGdRy/7XT5xJfDK6aucqxeuRV7rvJ5w/eaNcTe6bvJvPruVe+vV7cLbn+/MuUu4W3ZP417lfcP7NX/Y/rG7y73ryIPAB+0P4x7eecR79OJx/uMv3SVPaE8qn5o8rX3m/OxwT3DPpedjn3e/EL/43Fv6p+af1S9tXh74y/+v9r7kvu5XklcDrxe90X+z7a3r29b+6P777/LefX5f9kH/w/aPzI9nPiV9evp5yhfSl9Vfbb+2fAv/dncgb2BAzJVw5b8CGKxoRgYAr7cBQEsBgA7PZ9SxivOfvCCKM6scgf+EFWdEeXEHoB7+v8f0wr+bGwDs2QKPX1BffRwA0TQA4j0B6uIyVAfPavJzpawQ4TlgY+jX9Lx08G+K4sz5Q9w/t0Cm6gp+bv8F76V8XF6Lj3sAAABsZVhJZk1NACoAAAAIAAQBGgAFAAAAAQAAAD4BGwAFAAAAAQAAAEYBKAADAAAAAQACAACHaQAEAAAAAQAAAE4AAAAAAAAAkAAAAAEAAACQAAAAAQACoAIABAAAAAEAAAOMoAMABAAAAAEAAACOAAAAAOIK5iMAAAAJcEhZcwAAFiUAABYlAUlSJPAAAEAASURBVHgB7Z0J3CVFdbcLIQwCCgISJcEZ1Cj7Job9QwnoACqgbLIzUREEQgwwIIYtCkGDICJxQGURHRYBCQICLlG2UQZBUCKGCCgqm6w6LAr9naekmrp9u+/tvrfv0vf9n9/vfXurrqp+um91n6pT5yyUmDiJCIiACIiACIiACIiACIiACIiACGQIvCyzrU0REAEREAEREAEREAEREAEREAER8ASkMOpBEAEREAEREAEREAEREAEREAERyCUghTEXi3aKgAiIgAiIgAiIgAiIgAiIgAhIYdQzIAIiIAIiIAIiIAIiIAIiIAIikEtACmMuFu0UAREQAREQAREQAREQAREQARGQwqhnQAREQAREQAREQAREQAREQAREIJeAFMZcLNopAiIgAiIgAiIgAiIgAiIgAiIghVHPgAiIgAiIgAiIgAiIgAiIgAiIQC4BKYy5WLRTBERABERABERABERABERABERACqOeAREQAREQAREQAREQAREQAREQgVwCUhhzsWinCIiACIiACIiACIiACIiACIiAFEY9AyIgAiIgAiIgAiIgAiIgAiIgArkEpDDmYtFOERABERABERABERABERABERABKYx6BkRABERABERABERABERABERABHIJSGHMxaKdIiACIiACIiACIiACIiACIiACA1EYL7zwQrfNNtu4K664QoRFQAREQAREQAREQAREQAREQAQaSmCROuv99NNPu4MPPtidccYZPtsZM2Z4xbHOMpSXCIiACIiACIiACIiACIiACIjAcAj0rTA++eST7rbbbnNz5851F1xwgXvsscfSmj///PPpulZEQAREQAREQAREQAREQAREQASaRaAnhREFcZdddnGPP/64e/DBB5t1xaqtCIiACIiACIiACIiACIiACIhAKQI9KYwLFixwd911ly9g2rRpbrXVVnMbb7yxW2655dzRRx9dqmAlEgEREAEREAEREAEREAEREAERGG8CPSmM6623nvvNb37jFl98cbf00kunV3jVVVel61oRAREQAREQAREQAREQAREQARFoNoGeFMZFF13UrbDCCs2+ctVeBERABERABERABERABERABESgI4GBhNXoWKIOioAIiIAIiIAIiIAIiIAIiIAINIKAFMZG3CZVUgREQAREQAREQAREQAREQASGT0AK4/CZq0QREAEREAEREAEREAEREAERaAQBKYyNuE2qpAiIgAiIgAiIgAiIgAiIgAgMn4AUxuEzV4kiIAIiIAIiIAIiIAIiIAIi0AgCUhgbcZtUSREQAREQAREQAREQAREQAREYPgEpjMNnrhJFQAREQAREQAREQAREQAREoBEEpDA24japkiIgAiIgAiIgAiIgAiIgAiIwfAJSGIfPXCWKgAiIgAiIgAiIgAiIgAiIQCMISGFsxG1SJUVABERABERABERABERABERg+AQWGX6RwynxyiuvdDfeeKN74YUXhlPgEEv527/9W7f//vsPsUQVJQIiIAIiIAIiMJUJJEni7rrrLrdgwYKeMSy++OJu5ZVX7vl8nSgCIjAaAhOrMJ522mnuqquuGg3VAZf6spe9zG211VZupZVWGnBJyl4EREAEREAEREAEnLv88svdtttu2xeKhRde2D322GPuFa94RV/56GQREIHhEphYhXGhhRYaLskhlsaoKQrxSSedNMRSVZQIiIAIiIAIiMBUJXDRRRe1Xfrf/M3fuDXWWMNNnz7d/73yla9sSTNnzhx3xx13pPv23HNPKYspDa2IQHMITKzCeMQRR7irr77aPf/884V3g4brkEMOKTze7wEUu+eeey79e/rpp33P2qOPPup+//vfu9/85jfu/vvvd//7v//r7r333o51zdbly1/+sjvuuOPcEksskT2kbREQAREQAREQARGojQDfUkz1CTJjxgz38Y9/3O21115ukUXyPyUZkbzzzjvDKW6TTTZxp59+erqtFREQgeYQyP+VN6f+hTWlYTr66KPdUUcdVZhm7ty57oADDnBvfetbC9MM68Azzzzjbr/9djd//nz3ne98x333u991jz/+eGHxHDv33HPdfvvtV5hGB0RABERABERABESgXwI33HCDo7MbWWedddx1113XscN63rx5bpdddkk7wldZZRX3X//1X26xxRbrtyo6XwREYAQEJtpL6pFHHune9ra3FWL905/+5N7//ve7J598sjDNsA7QiP793/+9d2Zz8cUXu4cfftjPF9h+++3dX/3VX+VW49RTT3VMQpeIgAiIgAiIgAiIwKAIoOwhr33ta73i18m6Caupd7/73alzHM751re+5V71qlcNqnrKVwREYMAEJlphxDnMeeed55ZddtlCjP/3f/83lqN0mHi8613vcpdccon7xS9+4fbYYw/H9cTy85//3F177bXxLq2LgAiIgAiIgAiIQK0EgsL4b//2bw5P7UXy4IMPupkzZ7pHHnnEJ8G5DQ4IX/e61xWdov0iIAININCqgTSgwlWryITss846q+NpX/va17qm6ZjBgA8yVwDz0x//+MduvfXWaymNUUaJCIiACIiACIiACAyCAJ3TjBout9xybrfddiss4g9/+IPbZptt3C9/+UufBusoOr3XWmutwnN0QAREoBkEJl5h5DZgGnHQQQd1vCMHHnigjy/UMdGID9LoMo/gIx/5SFoTJqHffffd6bZWREAEREAEREAERKAuAt/73vd8Vvvuu2/hHMQ///nPbscdd3S33HJLWizO+bbYYot0WysiIALNJTCxTm+yt+RTn/qU+8EPfuBuu+227CG//cc//tFP0Gai9rRp03LTjMPORRdd1IfUWGGFFRxzNJnD+LnPfc599rOfHYfqqQ5jRgBPvGeccYb7p3/6J7fMMsuMWe3yq8MHxzXXXOMdUo1LrC48Hl966aXe4zHznrsJTqy6OXfAsRU98bNmzWozN++W/7gdx0yN0YWsvOY1r3H//M//nN2t7YYQaGL70RC0udUcx7aPijJqeMopp7jdd989t97s/NCHPuTnKYYEJ5xwQsf0IV287LdNpPP8zDPPjLNM13fddddSI53jeg/SC9GKCIyKgCkctckFF1yAB5b0z36gteVdR0ZmVpHYRO20fnFdw7p5Ta2jqKHkYR9i/los7lFijnuGUqYKaQ6Bm266KTElMbGYpIl5321Mxc0Dn3+uzf362NTZFKK03TDFsWO9DjvssMQ6nZL111+/Y7oPf/jDPs+tt946sQ6rjmnH/eDyyy+f8gltKcvVV1993Kuu+hUQaGr7UXA5jdg9jm1fGXAWXqPl97///vuXOa0tTb9t4re//e2WesRt0fHHH99WXt6Opt6DvGvRPhGok0AtJqnEGrSXS1sgeSZJf+Mb3xgLL6TWcLg3v/nNfnSO9SI57bTTvAewouPjtP/Tn/6022yzzTzfs88+e5yqprqMmIC9OL0pEG7QP/nJT7q3vOUtI65R+eKfeOIJn7hTWJnyuf0l5V133eW++MUvun//9393l112mcOioIp86UtfSpMTQ7VIiKeKNcOzzz7rQ+QwMlkk//Ef/+E9I2NWvuWWW7qnnnqqKGlj9uMMY911103/mA4gaR6BJrcfzaP9Uo3Hse17qXb5a3PmzHGf+MQn0oPbbbedt3pKd1RY6bdNxCIlbn9YxyqrigziHlQpX2lFYFwJ9GySSrgKzDsXLFjgCE+RJ5goERYCWXjhhd3iiy/uA7xi2oWiMwrZe++9vWdRHN0UCSZiXFsnT2BF5w5zP0xxekNMJMxSiSlpo0mlqoDJHGasLEcpOPQh8K+kPgL/8z//4973vvd5pchGr9zhhx9eX+YNy+nGG2/0Jp8ojLHgse+iiy7yClu8P2/9nnvucSiCQTbaaKOw2rakbQuyxhprdDQ1xS3917/+df+BQz0x9+L8rDfkkF92iSMKlGDa4EGKjR76eLZl6mWjq4754FlRe5Mlkr+N+fjvfve7/IMV9/LxzHz3qlMs1H5UBD2myeto+7pd2uWXX97iU2HDDTd0fFuVaSvy8u63TSQ0WTyHkjLe8IY3pE548srUPhEQgZIEeh2uXHLJJb1556tf/erEPJEm9gGW2Md/8vrXvz79W2mllZLp06cnpnglf/3Xf50stdRSCefdeeedvRZby3mYb1ojUmi6YOiS//f//l9ik7hrKW/QmdhcxuS9731vJbO2hx56yJsqcq2j/LORr0HjmVL5P/bYY8nf/d3f+Xu64oorJubavHHXTxvCM1nWhCjvAm1kL5k9e3ZiHy4+L54z+7hJzL17Yoqc3/fGN76x1G/GHDf49NQJ08tOYnN90rRlzdstPllazyOOOKJT9i3HgvnWMH6/NjeopezsRjBJtQ6s7CG/rfYmF0vLTpu/lT47dd1TU/5ayui2MQntR7drHOfj49b2dWKFybINAqTP7Jve9Kba3je9tol59a3KtGr6vDK1TwQmkUDPI4xNNp+i5/X88893jBQUjY7iIAdHDsccc4y9u8dbYnOQsjU1Rd/tsMMOfpSl7DmDSMdEeUl9BPbcc0/v/pw4njanuGMM0vpKHb+ccPLDqDvyzne+07t2x8IBWXrppR094ThIwHHUySef7PcX/fvv//7v9FAny4jnn3/eXXfddWlarDDKCPX713/9V3fsscc6HEVsvPHG3slEt3P/5V/+xVlHnI93dvPNN7sf/ehH/hTK5fqC2FxQh5kVaXHY8/KXv9xhKnv//fc74tDieMcUupA8XTJaiHktUtROpom7rKi96QLIDsej03Fq7hf3c9VVV/WOq3h+sS6JhSkhvNNiIY7vyiuvHO/quq72oyuisU9QZ9tXdLGE2MDcPFg30LaYklfb+6bXNrGovtovAiJQA4FJ1ILLXpPZy6e9Y4aybd1eysn3v//9stk1Lt0dd9wx0lFGRp9t/mvjuI1rhW3OcPoM2/zWca1m13r128NrilfKASsHRk2y8trXvtanMcW6q8MorCdC+/D5z38+m1W6/cMf/jBNh6Ohhx9+OD3WbcWUzcTMqfz5XP/TTz/d7ZS246ZQ+PNNUU6PmaKXmMLh99t88nR/dsXmZSbHHXecd5IUrnWrrbZKr6fbSFW3EUbKU3uTpd66zbMa2LPEmZlNG0hsPmxrwszWfffd5y144nNXWWWVxOYAZ1J23pyU9qPzVY730XFr+/JoPfDAA96KLDxvWI2ZGWheUr/PpgMkNj2p8HjRgTraRPKuyrRq+qL6a78ITBqBnkcYrbFovHz0ox91TO6nZyxPGDEgSO1PfvKTxoQkyLuOon3mwdDPdWMeVSzMf2Me5yDEzIH9KAd5f+xjH3ME9pX0TwDHU4w4IWYi7g4++OD+M21gDji0Ofroo9Oan3POOX5EMd3x4grzC5krRuwwRgWZ65knzF/81a9+lR7qNGponUtpOkZ2CHJdVpjzYya0/vfIiB8OrRh1rCKMQJm5f0t4Cxz0mPLps2F+T5EQcoXyeG6wrKB8M98tSt7TfrU3xdi4bzxrQYhnxxxz69gIu3KX+Al4z3ve4x588MH0+LLLLuuYW2ZTQNJ93VbUfnQjNP7H62778q6Y540QG7RRCJYszAXHuUye8BzyfGKtcOKJJ+YlKdxXR5tYmLkOiIAIVCcwaRpw1euxF21iscJaenaNYsv2tttuWzXbxqS//fbb20YZ6WFjZGIQwrw0+DJqo9HF+gjHo+VmolxfxiPIqdceXkYSw8ghz5h19hTWfqeddkp/46ZoF6arMn+R8Bih7dhvv/0K8yw6QI868yrJg1FBc7RTlDR3vznN8eeaV9z0uMXRS+tU5fdmZm3pedSnjhFGKqX2Jr01LSvmvTflzTzYMsLzwrspPHMsrQMuMRPqMqe3pJmk9qPlwhq2MU5tXxYd3wQzZ85sed7OOuusbLKWbVMWffq5c+e27C+70W+bSDlVmVZNX/ZalE4Emk7gZfaSmdKCB8CvfOUrHb2L0nMX5kNNGixGWhhRjIXew3PPPTfeVcs6vZMnnXSSz0uji7Ug9ZkQIoJRIQSPiFN1XigB4mMPkzxjRRLPATMlpiiZqzJ/8frrr0/z2XzzzdP1siv0qGP1gDAqiIv5XqTIU3J8zd3y/cxnPuN6uYZu+aq9ySf0zW9+0x/gfWSdFPmJMnt5vnk3xfKFL3yhsgdytR8xwWauD6Lty5LgvRJbY5kJu8PrfJEwL5qQQYS1KLLgKDo37K+rTQz5aSkCItA7gSmvMIJuiy228OZgnTAeeuih3jS1U5qmHjvqqKPaFGZi92GuV6cQ4xITOUIa7LPPPnVmPaXzwqQ4xI7aeeedHQ5Gpprg9COORfoP//AP3klIEYfgrIHjneIqxgpjJ3PUW2+9NY03i8IWp8UMu6zwARZMWc8777yhhL2hIwdTVJwkBeFDbVC/UbU3gfJfljx/PL/IKaec4lAauwmm1lkTP0zSe5lKoPajG+3xPj6oti++aszVbTQx3YXy2M1kno54viHoeLL5uOm5VVdG0SZWraPSi8BUICCF8cW7zAjNBhtsUHjPCcS9yy67VA74XZjhGB0YRq9/dnSxajDdMcI1dlWJX+QHHXTQ2NVvGBXKegruxsFMNdNqFXl8ZqQ9nr+I99IiiecvrrbaaqnSd8011/i5ZMGDadH5YT8eMXfddVe/aU5LfJzGcGxQS+K1MV+OTqJY8LLJHCWkzrnGam9iys7PFWW+PIoinqu7CSPZWSsCPFYGj7bdzs8eV/uRJdKs7UG0fTGBOXPmuLgM2gU8L3cSLD1Ce7Lddtt1Str12CjaxK6VUgIRmIIEpDC+eNP5MCLgbCdHAQTKzgtKPQnPzaB7/c27pHf/r9HFep8WwiIQAgYhQLHFG6y3gAbk9uMf/9ibPoWqmrdJx0dNJ4kdjBR1XsSji+Rl8S0Ls8S5QxCL4RpWnc3d8es4Iior8flf/OIXy57WczrzYujPfeaZZ1ryIHwD7R3KiMXSbTnW74bam5cIBnPUPfbYo6tiznNrMXcdTmqCrLnmmj0HS1f7ESg2czmoti/QoF37yEc+EjYdjrOwROhm3m4xYp3NKfeWSzi96VeG3Sb2W1+dLwKTSEAKY3RX+dA844wzoj3tq/TGolhOmtDrz4dILHXNZWR0MczHYt5N0Qd6XLbWyxGwUAnOJlL7xOuvv365kyYsVejJDpe1//77O0wqi4Te79gMteh5zCqM8Ud6nDfzm+MRxuCNlHmIl1xyieO+VFEYN9lkkzR7PLgGc+N0Z80rnUY/mcto4Rb83Ng6i1V78xJNYtphxvzBD37wpZ05a4yE8/Ft4VrSo8S/46PeQhuk+6qsqP2oQmv80g6q7eNK582b562qGP1GzCGXo3MjxLP1OzP/Hn30UfeP//iPvs3gEG1fN0+/mSxyN4fdJuZWQjtFYIoTKP6qmqJgzHui+8AHPtDx6s0Dog943TFRAw8Oqtcf85VHHnlkys1dNM+S3p24eUB0mDSXEQKqo2CXlThQfFBUyp7bLR3hZJh3esQRR7hDDjnEr992223dThvqcT6eUWhi6WbWl72GMGcwzoP1rMKYF2aCeTrZECZhDinKIvMXs+aD2XKy2ygBYTST5+GGG27IJqltG37ZsDq1Zd4lI7U3fwHEc/LTn/7UvfnNby4kxnPw/ve/36cLiRZbbDF36aWX+nY17Ku6nOrtR1VeeemZD819wGyT8BFXXHFFGtA+L31d+wbZ9tGJgWVBmOtNm4bDm9C2Za+ButDZzjMcO23q1xw1lDPMNjGUqaUIiEArgSkdh7EVxUtbzOfhI40P/jwJsQRJU+fcnryyhrkP0yZGGS+++OK02DDK2IszBTLBA18YXUTxKBrNSQuckBWuGzMaFGUEkz4Le9Dx6nieeMFyDsxCXMWikxhZHMQHH/P2cJ5DD3OeMMpx/vnnO+aWjFpQdmLnTMQ/nDFjRsdqZUfU8j6CeO5//etft+SDeSaKP4o55ulf/epX/QgiZTI6FO4XSiSjkRaawn/MM/e5qmy66aaOjzaEe9yrl8FO5fKcmZv8oTjWyauH2pu/UJk+fXoenpZ9OF1DEYkFc+UNN9ww3lVpXe1HJVxtiS3MhJ83evLJJ7dYLBDDlLimjMYxcnzmmWf6qS4olJ1G59oK6LJjUG0f7SltfHh3UQ2ulY7yWOjEYJ416e677774ULpel8JIhsNoE9OKa0UERKCdQNPjggyq/sQLsx5cH0PIqOUubdRlUMWPLF8bVao1LqM5YvDsVlxxxcQ+tkd2XcMumLhT8XNjHi+7VsE8e6bnmOOUrul/9rOfpemJv2YmkF3P6Zbgu9/9bmIjbj5fYmWa59HkF7/4RXL//fcnpiQmpoz5YxaKpVtWPR+vEgfLPiJSBvA29/Jdy33HO97Rcs7hhx/eds6XvvSlNA3twFprrdX2uyBW4uzZsxMzGfXnU7bNhU7Pe9WrXpVYJ0Bb3mV2mOl7mo+ZY5U5JQlxGIl1GiSOw0hMsyDz589PeMbiZ9RGNcPhyktz2OLzOvXUUyudq/amOy5TOFruE/fs4x//ePcTu6SY1Pajy2XXcpj2cKONNkrvyzrrrJN873vf87FTLTSO329mwomZxqdpbBSya9nj0PbZaKGPAxu3Db2sW4dp1+utkqCXNpH8qzDtJX2Va1BaEWgyAeY/SQoImKOWtLHPazCt9zAxM7WCs5u720YZ266bD+iqYqaViY3e+Lz+8z//s+rpjU6/7777tjC0EauO12OmP4mNvqbnWM9sx/QctJHgNP26667bNX23BHwomNMnn+fqq6+ePPDAA22n2GiXP86zb/MA247XsaPsC56PNuoR/zbNK2nHKqA0mYv3lnPyPuTMAUmaxryW+jzNssArgHQGoHCZk5i2su69997kwgsvTMxMti8+5rk0LZ/fUBnppjCaJ+jEHFikH1CB26qrrurLGoXCyHWpvSm+uyghdAaFe8XSTK4TG90pPqnkkUltP0pefs/Jfvvb3ybm7yC9J2a62dZZR5sR3zPWy3wrjEPb1zOYAZ/YS5tIlcoyDdWvmj6cp6UITDoBzWG0lrxIcJ6x/fbbFx32zkb22msvZx/WhWmaeODoo4+uJS6jKYneQYONLvYUH6yJ7EKd4/lvXD8OlToJoQ1ipyrxJP+i82JPn1WcqhTlRyDm4GCFeHDMG4mFeVY2suh3WcPoOgW8j88b1DreYalHLDZ66ENB4PU47w8T8mxcxDxnQfH922yzzXwRr3jFK5yNKnhHEHijnTZtWly0X8e8cMcdd/TzfzBL61Xic5kfhIlzv0LcNLwVY24bBAcVOO0Zpai9yaePB1Pm42IOGGS99dZzxGDE1LFfmertRy/8+B1utdVWLrBjzh6m6cwnjcWsFuJN71WUtqMuGWTbV1cd685nEG1i3XVUfiIwyQSkMHa5uzay5vjgL5KHHnrI4Q49++FalL4J+5lblFWUw1zGsvVnsjxzOZA65y7ysc8HJvMDcftPbDw8xcXKVtk6DiodHQghVAFlxEHci8qMFRTSVFUYYdGP4AkvhHDACQyB77NCIHme9yBlvd/dcccd7pZbbgmn1bbMm2OJd1R+i0V/zLuJhTAv2evIzl8sc//iPOtYjz+OyM9GLvvOlt91dr4c7Vv247bvgipmMM7tTcVLqS05HTc4HYm9+dIpdNlll9U2Dy4oPVR6KrYfvdws5pbjDCwIbSYdSVnBC3A8x9ssQPoKXp/Nf1BtX7accdoeRJs4TtenujiH12ZiKI/b9/QPf/hDZ6bmPlRMk+8TXG0ajct+b5a9JimMXUjZPCQfRqNT3KFvf/vb7sQTT+ySU7MO9+vBkNFFlAuUbUYx6hCcPpj5nGMkjPhTTIJnlMvm8/hg58H9dx1l9ZNHHGKBfMooHPEPmA+QMvEUH3zwwbSaneKHpok6rNg8RUcYCIRl3oiWmeqkObzzne90b3rTm9LtohWcdaAQMDKCl706hUY8Fp4LnoFOf5tvvnl8inv729/ess1GfC9QJstcZ1smfe6g3YlHkQgF0q/ceuutXvHEQQUjyGZ27LO8+eab+8267/PHsb3p+6J6zIDnF6dTsdM1nKWgLK6wwgo95tp+2lRvP9qJdN5DR2DoBCUlbWBRxx4dm7Fn7DLvgM6ltx4dVNvXWsp4bQ2iTRyvK5zatSHkGgMVIa70ONEwXxwO51ZXX331OFWrcl1QGPHozHePTVGpfL4UxhLIeCnwQdNJMPfK6/XrdM44HzMnHz2PMg5idNHmhbltt93WmRMPx0e/zSPx8ceuv/56jxHPruZwYyyQVlUY4RV77kQRxpyym3BekH5HCOAZBGURL3nZ55nwEOyjrih/sUITzo2XeNsjLEeQ+AMq7Ot1iZkeClAscXDneH9YJzD9TTfdFDb9Ms+DaawwBnPUlpOGsMH9t7mWaUnxvU539rjCqCoeXLmXW2yxRY+51HvauLU39V5dtdzMeVLLhwm/s3PPPbdUJ1KVkuJnaqq1H1U4hbR8A8QdafyGioT3UmzNUKfCOMi2r+h6xmH/INvEcbi+qVwHrNBOOOEE3zl77bXXdv22GDar0JnON0QvMi6WcVhgEYaMQQnaM/SWKtL2VYoLd0ZvxkEIRlzX6FS/18MolnmQbAnQHefJxzFxsjC/6zWIcpzfOKzzQNEbEZsHYP655557dlRovvCFLzh6r+saXcQ9+W677eZHjhhhRDkMH9N8aKIo0CuFeRAfW50E01UUAs7JzjuJz+N+llHa4nPCeqxwwCAemQtp4mV2/mI3xSecG3/w9TvCyIgmo+hhlJZnHZf9b3jDGxwfO/T8MXcnb75fqE92CT9Ms8wbo+M+cX5dwuh1bIZMuJZudeO+hIafemB6m6cwxQp/nR96Va8dE6wwpzS+11XzKUq/xBJLuAsuuMDfY9zjj1rGpb0ZJQcsM7JzSukJDnOH8+pGsHTMinmWiSNcVuJnaqq1H2UZhXR33nlnS3xB2o4tt9wyHG5bxm0I7WrRSGTbiSV2DLLtK1H8SJMMuk0c6cVN0cIvv/xyR6xqrCfMaV1hrM+m4sEyzpwg+sEO3rmM7vEtwncfnd68gztZMNZ93YQBowOSEHqE+mGaSrfY82kdTBloEYsl1ubdyxKPZJ/Frmup26g38Mq47LLLdmTxne98Z9TVrLV8UxTarreTx1TrgU3MWYo/5/TTT++7LoQFsJeEz8+cjCTmCKItTwucntbR5sq1HY93vPWtb/VprYGKd6frjz32WLLKKqskZgKWW1aasGAFz6Lx7wVvm93kyCOPbDnHzI26neKPx27dbSSv1DmdEpnC1VKP+DpYNwcPic3N7JRF2zFT6hJTRtr2d9pRxkudNbQtdTWFt1OW/hgeQuNrwpNtVvA+GVzh28hOcvfdd2eTDG0bT7WhvvZS7VpuNy+p1hmQmwfhgShnVF5S40qNur2J6zLsdZva0BKWhXvCPe0mNq/O3z8bLe+WtOX4pLYfLRdZ00a27TBndx1ztlit6W+Xd05ZGWXbV7aOo0xXtU2krmWYxtdUNX18rtarEbBYx/6bmnctIb3GVayz2/+eCe1SRUwZTEwZ9OeaZVwaguu2225L24fPfOYzVbKsLa2NLvo6mBKbWMznUvm2jTDSk/nGN77R3lWjF7TxcRKcDtgD48318urFKE3Z0aG888dxHw5mmIhsT1NavU6jjHPmzPGjiwSqr2N0mDzoQUcIjm6NeVqPsBJ782TeDw4G8gRHNGG+VlGPDr1BYe6QdRDklpeXd9iXtb8vM0JlrvPD6T7Ac5n5i5wQj5DGplJpZhVXsNHPBmyOs4AfPeWYjDBiWEbwStrv6EVeOXFQaY53qw+mJF/72tdasuJ5ygrmf4cddpjvAbSPRD/6lk0zrO34nsajQXWXjwk0zjwwVxm1jLq9GdX1M4cY77pYNgRhhD84ogr78pZ4TUWqjuBP5fYjj2Onfdm5S8xfLJKnnnqqxUqrzDugKK+8/YNq+/LKGrd9w2oTx+26J7E+WDNZ+Bnv2OvDH/5wrj+BJl/3uFvGHXPMMc7CgzkL9+Mdd2JGX/RdnN6HUmqlErUQMC9Oae+AgfTrjIYyGjaJUrbX3z5qk9e85jWeBzEs+xVi2QW+jC4W8TXHKmk6m5xcWKwps2k6YjrliSmoPg0xEbmeqmKhWNIyqHveiGicJyOycZw1YnqVlXe9611pWTZhvOxpHdPR08SoRjZWYbgPLO1jqWMe/R4s08N7/vnnp9dOnbr10tlHdUv6mTNn9lvNgZ8fRta5vkGOMBIj1OY0+HiIRRfFKKR5JC4cLV5++eU9X5tHXJRF6f2jam+KKkg8WSxHzjjjjMQUh7aYe0Xnld1vHWKJOVZqeT7NTCgxs/6uWYSeanqxTZHomj5OMKntR3yNdawzChK3f6ybWWhh1sRbjNNbJ2Rh2uwBtX1ZIq3bVdtEzi7DNC6lavr4XK2XJ2DmkP53YlO4cmM+l89p8CmrjjA2xTLOptClbdXxxx/fFeTou5StZW2a4PwjFuYsYoddpwe7OP9RrzO3iJGXWBhljHvDOcboIp7kGF0sbRMdZ5pZj53YMBpUxJeRwCCxG/qwLyyxG0e4X2Ym5Nez/0KaDTbYoMUtejZd0XY4n+Nl5y/GcdbywlkUlRWPwIe5bkVpy+7HuuArX/mKH9VlNJbJ6Fm38VyjtSxlsxxIumxPWDZcRLZQ5tXGgke2cZf4nsb3uu56EyOUeVEXXXRRbtb8pkwhdzfccIOfj5qbqMado2pvspdADzh1oT3jd0m7z8gS86hwHMAfoS+yI9fZfDpt04YyssgIYxB+b7xPTAkPuwqX/FYRwgvZdInCdHkH4mcqftby0pbd15T2o+z1kM4UxpbkXOOrX/3qln3xRvwOoJ2qc/4i5UyFti/mGa/Hz2n8/MZptD7+BLD4waIJYXQxthIb/9p3r2EvlnFFuVaxjMMSKf4eLsoz7MdTepiLjZVR7OMhpImXUhhjGiXWbY5biwMCzLjmzp3r1l577RJnNzMJ17bddtu1VD4bl5EHLYQWqSPuIk4GCFcSJM98MByLfyDBaUs4Fi/Di5wXeJ5DGz4MCJaN5IVbiPPKW+ejm3oHKfOhEOoUzonDPvzqV79yJ510UuGPmA/ZINlg9GF/mSVxxbifsfBRQigM63XyoRhiRRZvp8FMOD4nrBPq5Mtf/rI3Ze6kwIf0vSxxOhFLNpZifIz6xN5R8XyKGeY4i41qpQ6IqCfm8IMUzBOLTFJRtoPHR+t9H2Q1fN6jaG+yFwV/vDLjcIZ1FEcbfffKoVk7eCWP45gdVfU0F5dFzDEbvUx3cQ9QQHEW1U34bZ199tk+GXWpKlO5/ajCKhvSxuYndjw9dngTx1/EERzteZjy0DGTDgcnve0ruvRht4lF9dD+/gnQxtF+MRCBQ5hJEjr7Qggx3hV8D+dJ/A0Ve6nPpo3bEzoG8yRMa8L5X9FgSN557AuOIqkPznA6iRTGTnQyxxgJYo4nGn8Qet7NtCdsTuyyW6+/mWulo4v0rvQrsadARo+I5Vckce98kXt40oQXf1GohPiH2YvCmJ2/yChlNwk/dNJR9xAbj21CUpgpoP9QZTsrjAwF6UUxM4cunisf6ObwxI9qhPziJSMqoTOA/QSkJiZWVlAq9t57bz+fkGfATAudOcppC8+RPa+X7ezoSxwkO5ufOV9Kd9Ggmrl0uj2uK7HXUl6q3UZQB3UdZvLoPdiRP/fcTM4HVVRLvsNub+LCaSdoI5jPTMfS17/+dXfsscf6uf14wuZ5ij30xr/DOJ9u67RxeEWNhXhfZd8n5qDOf3Rxfi8KY1zvqdZ+xMy7rcf3mrSdOodRapgXFCSev8hzQ3uOV8R+ZNLbviI249ImFtVP+8sTCOG28PkxLj5Tyte+c8qmWcbZ9ByH51Tks5/9bMeLk8LYEU/rQXpC4g98nGJ0isXUenazt3hJZj9Kwigj5gVBoaA3hV6VfoQXQzC1Ih8csRSJ2Yp7JzvheLb3NeyPR/LiUbxwnGVIw2hLGWUvPpf1WOFke8aMGSwKhY+0OP4iTi5i018mIxOw27y25uYR5//Tn/40N02nnZgVEwYGQdmLn+3seXGomNVWWy13NMrmkjoccGyzzTbeZTSjJFwjH0l1CyNu8YhYkVMYOgoY7QyCKSr1H3dBmQ+CKXa/v6mQV5Ul4ZW4l3wEI0XPYZU8y6YdZnuTrROdHiG01OzZs9vaPUxI4w6TXhyd4UQl9OyG8ulkQQksI4xKBmc3PM+Ev6kqk9p+0Jbhsh6TYaw++hWmFsQSj8zG+1k3D+ItUzVihfHKK6/0yYucsmXzKtqe9Lav6LrHoU0sqpv2lycQwklwBu+XSZImWsbxzUlHKIL1Q6dvSSmMJZ9WgoriITUIHum6aeMh7aQs8WAYKzRcF0oHIzb0yvMirWN0kZdu7A2tk8IYmxpSn6KXeVAGmfdQ5IU0KEzE8wsf6CjAQaki/04SyghpYi+EYV+8tHAaLR8XsZJ67733+h8uH6N4Gs2TeDQS89Ws97y8c+J9xEeMpVPPeWw2xwd1VvgAZrSdPIiTifIbYmVamBCHGWudgufVmBem4nny0Y9+1IU5oiiwTZi7yHXEHQnxfc67xrAvmI2GbZbxfKeyZsuYdWM6xz2MTWWGrWgPq72JeaFkEAsMYQSOkc6sMOoYe/6NlYJs2rxtXso777xzi8kxI5rZ0ca8c9mHibWFdUgPd2of00Q5K/FzNUntxw477ODndNLBibIXFLUcBKV2xSOxnJCd0x0yYf4+3wlBeFcGEzLMUemE4J3Qi/VKyJPlpLd98bXG6720ifH5w17nG4Z4xmeeeaZvU3oN+j7sesfl8U7hfc60qzJS5hqDuSb5MbrVrzAPHEsYOoa/+tWvtozw95t31fObaBnHNcYxrBmoKJSubnGUILnwwgsTa/xTb0L24ZnYx9eUJGNzGVMO9lC1rNcRCxCocXwwyjDXywlxr/L+TEFpqcPDDz+ce19slManM9PW3OPm0CPNxz5UfRp7Qfl91sDlnhPvxGte/IxQb5v7FSdpWTdb8bS8wPGSSy5J04QYOd28zdoHUZpPmXqmBdjK1ltv7c/FS6u5WI4Ptaybm/jU+y0e5IitmBVTbH1e9mLxh8w5QWIfR36fKS2JNerZUwq3y3qps4+z9No//elPt+UH/8DW5jgm99xzT1uacd1hH71p3a1TplQ18fzK9cYsTFlO40raXNWO+RCDlHNf97rXpWUH76fke8oppxSeH9LV4SU1LmQY7U0ozz52EhupS6+9yOOyKdFpGp5xzisreDKNy4CrmWSV8nBq88QTcxThPdqG55rlvHnzyhbflm7S2g+zKEjvTWBkI3KV2p82SLaD90bIL+93QJuIF+GQhqWN4KZZWQeMP2ZTWtJ9eStq+/Ko/GVfL20iZ5ZlGkqumj6cF5a863h/2xSTlufBpk0kl112mf/DQ7EpN+GUsV3aHO70Gi699NKO9bRwVIl1tCfEc+4k73jHO3yeeGLvR4jvzDMB1/h3xzq/V9qCuqSMl1TenzYgkdblwAMPLCze/G6k6ahv0bdi7Nm/KD63DdL4vKq+i+LK4ak7fL8SL7JI8HYo6UCAl3H8QBI24r777utwxmQfsl7S9MGKf6S8lKt8OBVRIg8anTjvsutFgcdtzmmaH/fPes1aireRtiQolJRljiz8cYI1m/euUtdlvXBpGaG+KLPZssiYD1GUKDOfbTmHPBCUTz7A4WAmnX5f0T+U6VBeWcUi5BUCflsPehpQNhwLS1zK20ieL4P6BDbhOMuf//zn/jgfnygoiDnjSOuFMllFyr6wCVkSfps2QtNSBGEQwnNkPfJJN2Wp5eQx2IiVNpsbm1sjni06SMwMJqEDIlwvSpuNGKV/Yf973/vehN9COHbrrbcmNj8vMXNy3xkTv+x4prjvtH8hxAqB5YtkUArjoNub+HriDgauvyiMTxzSxUYX4yw6rqNUkD78XlnSDtBZxQs7/uO+8sEDfzPPT2bNmpV22sTn57VnHSuROThp7Ud8b2JOZv2RufJqmzZ6kd43c5jVcjKdADZqmB4P5doIrk9HeKbQpvF76yQhXTcX95Pc9hXxKdMm5p1blmk4t2r6cB5LOlfNzNI/C2aJkJiFgg+Kbk5evAJJuK7wfFBOkdDhSrtu5oED+TMrh8SmGhQVn+6n0yPU12LCpvuzK3TGhnS0aWalkk3it3lnBUW6m2KZm8GLOwkFFUIRrbPOOj7sFHWgvQwdC3TE1SVlFMbwPRU4WLzqwuLNI3nKi/R531WcbKaiPh3v5qJO9/C8xt9Ahx9+eGKWKIXl5x0IPDsp8lIY88i9uI8HEIUhPAB8nDLqNNXFTH1SJoFNXaOLxEcMebKkRx0lMu+PBjVOa6E8cm8N8dPidDZPyMc4o4eKRtDc0Scod8QDIp2ZoSb05rBND1sZoTcpLiOsE7PQzGb9j9ecHiTmbdSnQ7nigxAlL6Q1M7UE5YAfPvsYQesm8UcuCkEV4frNE6ovC4Wf3iybJ5KYOWxCb6KZzCbmPt4fZ4SOxjhPqDO9UygeQeIPKPhXkdAAdvtoIs/4Q457hYLBkpc1DMmrqGeuSp2GmdZM23zdqX+nXsP42QnP0CCX1KtIBqUwUt4g25v4esKIOwz5CCmS/fbbL70/wRqhKG28n46iuu+PhfqIi6i8PmntBx+SNre5jTMdWP2ImdT7+LPh/pmpu28PbVqKH0lkvzmO8J0M5qXQl89vl7id4aOPEciij75Qt6ne9gUO2WXZNjF7HttVmPaSPpSJ5YHNT/X3nvfPN77xjXDIL1Eaw/PDkm+BPOFbh/dxnHYQ690UKn5Lcbl8bxUJcZBDWr6liiR0LpN2n332KUrWdb+Z4fvy4M1vM5Y45nK3UUa+dxgZ7CZlFMYmWsbF1x3aKe6NTTGLD6XrPSuM9JSZ5zhvyoY5W5U/PgTpEafXj8Dl4yj08NicnfRHwAdxt97BcbyOQdSJj/LQOLCsa3SRupq9f0vejIIUCcpkXA+LG5ibNPSiY3q51lprtZzDS/2AAw7wwbgxPQ69X+RLI5FtjHILsJ2YKYe6MKJjsW3S7bCfJR8zKIaM8iD0PjOSGcwBQlpzrJE7OulPiv7xww7KEcpd2fqGLBjB3GOPPZK45zPUgSX7CaReNNoS8ok/hOhoCddjTnsKRy/Dudll1Re8OQ9Jywt1p5fT4juV6kXNlj/qbUyTw3XssssuhdXhxRhGD0P6QSx5ZunE6CSDVBgH2d7E18RIdOCHeVWRrLrqqmk6m/dclKxtvzmFSs8L5fSzpNe5qBOnrfCCHZPYfvBtwccwbXtoh3mv9Cu01YxeZBVS3itxW0OnMuXH95bfB+1iN5nqbV8Rn7JtYt75VZlWTR/KDKaW3Hc6W7OC9Y05y0qfC76f84R3qYVu8Z21WCEN4o9vBd7rnSTujOX57SRhVJVr53uqSJg2E34XZTvjs3kxchbywKIgK7GZPSPxRcL0C/KhQ7KbdFMYm2oZF1+3OfBMuRZZZCxiwCqLFeLsI7zFtXjlTF48AccYu+22m8MBiCkevWZT63n2g/VxtmKnIExmJ6SGxDnrfXc2muWsEfc4uHf24VoLGjPFSvOxEd2WMBPpgRdXbD5Aust6d3zcwHRHtBKc0eAdlQnXxFMj5iLOC3AnHJwY4P0Qr114icKxACEhygieQGPPUvaR76xH2+G4Bqc8xIk0UwxnQ/6enZl5pNlyjbiYxlnQ9ddf739TOLEgzEUZIcwBbvitN9PBzkYGvUONMueShpAZ9oHlrPF0OKehzjhHsReE/z3CNfYIWZSvKWjpIbw30kYg/Gb4jQ9ScLYT+HEv8EJIvQdd7qCuicn7QcwUMay2Lffcc0/H36TLINubwA4HFXFQ8NgJQEjDkt9YiKNHmxccL/H7xllQkYMqziVkBn/jJJPYflgHmOMPwWEZIZlMyesbO221mZL5dwftLM+LfZw6syJxcRxY4qDZSIoPx2IjHL4dJcRQmXa0aiUnre0ruv6ybWLR+YPeX8VZVnDQVuQsi3cp7+JRS/huoh7WYVhYHdq96667Lj1edF0kwAN+kF7fz7Gjw9gpW8gXZ2183+FcypT/sLttiaMcpI5vV+vUbHHsZ4MZzixR2spkB9EFrNMxPVbENva6j0MtvNBbR6avrw1eOTx40/7wvYYnc5va4KwjwHvP5ljV6yKsW5D4Ozzs88tYw6yyzvA6NruY5FiA8lQztUz9Oho5E70x2Qh/aPSYcuDIwC6m5Rx6dexjtUoVBpaW3sJwHSyZVCppJcA8O+4vJp1F9uqtZ5TbYrQosO9k2sB8nzCyRnqLbZVbACYJIb/YZDI3cY87495PyqJnbpiC/Xu4RkxBRynMUWBOZKiPeYmrXJ1ee3grFzSGJ9AjGkYw6Cmt87c1yMsd5Agj9R5UexOYMNIWnlmWmGPlCVYIIV08N5f3HaMHZeYF5eU7yn2T1n7ELMO1MdWhCTKV276i+9Nvm1iVadX0jC7FjqwwPc+Tfpxl5eU36H3xnNFOzveY8hHaRCyLTNkorJp5gk7T9vqdhD4RyuMbkFF/TM7hi/DO7GYRRTreKabol7LK6jbC2FTLODgEic2Ki0z4exphtJuVxu1gnfhcjI4EoSeNEQ+CZBcJGmyI20YatG40bdwQ2w+26LSB76fHzuZ1pOUwKlXW3Xl60hRYoSeDkAV1i00aT7MsCpFBAkY3GQlGSMeIZ57EvWSder7yzi27L+4J4pyiHqOy+VVNh2tqeproVSM0CL3ajGaOQmBhple+aEZSA3N6IYmVGEZzR1G3JpRJcG9GqxCbn1bLyEgTrrtbHQfV3oRyGVFndDCEYCmyduH+BAm/c0aazCGQs7nQzsxEw+HGLCe5/QjhgIYZQ7QxN74hFR33NhFrIlNqU5pYzOWJzfVPd2OZUHUEKD15CCu8wwm1EyS8x8N2vIy/f7DYKoqFzTmxFUevbWVs/cE3IKNt/CEcIxQaIXW6Ce+Ud7/73d2SlToej8g1xTIue2Flvs1elj2pl+14OJrzbd5AR2WRNNws4u2Z3TebXsz7qNt3333D5tCXmDiixAbh4ScGTSczo5BWy3oIYCIZpEhhRPmw0cKQzNkcQGc9Tel2vBIURn4MRfEX4/S9rIcyOBfFbdgdHpiwfOITn0irbs5r0vVhr/DyDEK8Rutx9Jt8lHJv4xdGSKflXwigUAfTKxSWQXTIiHU+AUwWYzNwTLOzQoyt+LdOjFQEM3cUTcwOmyiT2n5Yz7k3IZ0+fbqLza2aeI+map2b0CZijhoE83nzuB42W5axYhU6m1oSjNFG3M7RmRabUGarGaftpFhyXmyGaiOz2axKbaMUmsOc3LSY8poFo8MkdJgSK4xMZSr6HsUcOR5cs3mDudVk2lQwt2XQCuH9xDom71nlznxFOJv3WnoaVV6hYQCGY3xj50ktCmP8wFBIt4cmVIQXFXMhY6FHMO7ZiI8Nch0bZHqGQu8+vSRmzqIXzSCh5+TNnJog8XrYx5LgrPygEO4TIzFFYqZI/pB5JGsJYl6Uvup+M431gbTDeWWf/ZC+riVzdpi3hzCHsGyQ9rrKJx9e7qGnj+0wv46RT37XjMDELwzSSF4icN5557kwv4UOEV4CkuERYB5skPilzj4UeTOXD4f9MoxCmrmW3+4037TlxDHcmMT2w8KR+PnjdChKmkmgCW0ic8eCMFhSJLHCOKrvhKK6ZffH3/SdlFsUi7itDMpNNr+wHdpMtvvpPLapUM68r3slKU85Y65fbK0WymeJInbNNdfU+o0Ul1U00EHZ42QZR31iia+haL51/rBMnEuXdTRrc7fbkqrTA9aS0DbMm1jLLnoFcSpg9tMt+we5gVMShqZxfIBgKoBJrdmlD7LY2vJGgULh5UdiYUBqy3cUGcW9/Hm9HOyLR9NoNOJRyWyd6ZCgQbO5ttlDtWwzus4zG2RULwJG8nCeY2EyHI5fUKLNg1io1lCW8+fPT39DTDy3uYy+XLPv94ywHggjjkOpUIMK4SVmwZ59jTFXynakNehSGlvVD37wg44RchylfOxjH/NtKSOPdMDYHGlv+k7Ptnn389fIO4IOEtoAfvf89poqk9Z+0GHGPWRk0XwSNPW2TOl6N6FNHJSzLEYtY0d6dT8I/N6xoCuyiogVxk7fNObFPlW8yDNOy28w20EcK4yxA5yq10e7THvNH/eAqTi03VgEIoyWoaDjEDDI008/7R0CMu0Ns1HqhwKHo8N+Jf4GLVIY+XYdJ8u47DXHgwyFFhlhwmOvS3thphNQrQI+4HiVvHBWwnnxH4GKhyWmVfsYfHH5poANq/i+y8FVN+7D7Qb70BB9ZzjiDOxHneAunvux0047tdWGGIrhXhHMetRy8MEHp/WhXkXOMoZVz7g+VeMf9ltHHNyEexPCEuCwgNAa9uJICHBdRqo6HSiT5zinsZdbYp1snp29yJJOoWTG9ToG7fRmWNdtH6kt8fZ4nu1DKCHGKY4UcOp0yCGHpI6JOG4mSD6u67DqOMhyJqH9sA8zHxKJe4NjvibJVGv7iu5NnW1iVaZV0g/CWZZZ6iSEagnv0kEt+W7ME97ZcZnmTTQvmd8XB6tfffXV03TEHyUPHOLEEvPCAWYVIYyUWVElhH8oElMg07qbAtmSjPAZhCgx67QEHYP62TSlljRFG92c3sQOYwgxmCfUP3ClHoQ0K5IZM2b4tDgIHZbE7KzTNLfYvkcY454Ig+HCvA7Wy4jFzmtLFruobjtY4w40fgtW6YJ7XbK2m92o3n3mXGILznwxawBqpDOarLgGeoXo0aeHCDPHYJqHMyLzzOorRppxcEYUT2RnRC2Mqo2GnvPhMX7yk5/4Hjfs4zFTtXiiQ6kOcwsYnbdYkM4C4rrLL7/cHXjggX4bd/SYpEraCRx11FH+WecIpjbmHbg9kfYMhQDvHuYkYjXDHz3R3I+4Z5wQNIyW897AEoY5JfSuT4JwbU1vPz75yU+6q666yo+eWAfjJNyWKXcNTWkTB+EsizYHayEsdsIUqbofAKaDFVkCZr/pY6uvbD14xweJv/3nzp3rd8ftJjvghQkpI4CEnikrWDJi8s83O9OMCFmRF/Zs4403dlg0IRZzO80eE1R8lBBCDKtG3rOIKbBpmn5WYkbUMSvsGyfLuGz92A7honj+GH3OlVw1ssLOOGC5FZDYg17h7CSxl22qdXM+fzbnqVIevSaOA1VSrs1h7DWrkZxnP4KUXbYnZyQVqqlQevJt/qK/NjPNS+zln3zgAx9IrJHz++h1wZX1OIh5I03vgc2VGYcq+ZG80EtqymJCj+WwBIsD846cMmG02JxbVSo+1P3444+vdF4TExPImBEs2h/r/GniJfg6hxFGXJ5Lmk0AS4DwG2xi+2EdiwmhsZoY4iRwnwptX9GvpO42sSrTqunNIUz6vrvrrrvaLuvUU09Nj9POX3vttT4NQefZNuWn7ZxR7rD5zC31tXn1udXJXlcY0eN7A4si60DOPS+MnjHKVlZMAU3rZEpoYuaTuada3GefzpwPtYSkwlrNzEbT70ZTiHy63XffPTef7M5uI4xNs4zLXh/b8OF5NKU777Dfx9yinoUXS/jYoSD+ioYy8woh7mI4Lyzj2FZ559S1D8U2lMmSWJLjooSUuUZzIpKabtJgTZoQN4uPlfgeoUSOm7mwzWNKbL6eN5MoalhHcW+IP2neAT0/GkVM6YYl1huYWM+j/2O9qoSYVieccELVUxuVHnNy8xbt7xHmINYL2aj6x5UNCmP8e2Wd37CkeQSa3H40j/ZLNZ4qbd9LV9y61m+baOFtWr4Z4vaorBJe9R4QjzqUk+0cZTt0dIc0ZrngL3rTTTf155mVXSuEEW8R/zfUlSUx17NiI3UtZvmku+KgSUzyAAAPP0lEQVSKK3wyc1Tkz8+yCHnEcc7NEins7rj80Y9+lNbJ/HXkpqWjKNTbRklb0qBwEi8bsTnnabqycaK7KYzku/POO/t8zY9IYvMq2eUljj1plnGl4j6Gc4e1NEejKZNOpsJ9KYzcgHCDWNJjUOXD9Nhjj205nzxs2HjgjK688sqWHzENRC8ftgOvaEEBfIxjfx7YmxlRQcrm76bHjp64n/3sZ5WereZfef9XYM6cEjPL8M9JlY6c/kvuLwc6b3i2Q49lf7mN79lmDu873I488sjxrWTJmgWLgNAmheWaa65ZMgclGzcCTW0/xo1jlfpMlbaviEm/bSKKQmh7ssuyCmPVe8BoV7C0Q1kw7/oJ35hBgTAnKIk5NEvrRT2OO+44v21OYopQjGR/dv4iDG0qSXLWWWf5bzBzKuPnc7OfUbpYWd5ll12SSy+91Kc3U/0WpSm+GHNQk7IoOwAQz2ldd911E3yf4C/CzHZ93cxppc9zySWXzFVw4/LNcZlPy0hyWX2ljMLYJMu4mAfrZsab3hPucZH0pTAedNBBaSE8QDgGKCvA5ebGP+qyw8Nly8hLZ/MzEothkpZr7mMTs6XOSzp2+xgBtfkZLROizR48YSKxRATyCDz33HP+BUaD2xTBcoFJ85MudIIU9ZY27dr5UOMlnv276aabmnYpqm9EoIntR1T9xq1Olbav6MbU0Saah9G2doh2KYzsFZUd9vdyDybFWRajguGbnEEJOpyzVoQ4Zps9e3ZiYTE8Mgs3lPAdGs7jm9pCjQScbUssaUIHo4UyajtetAPFHPNdnOiFssKSUVwLndb1Wx4z9aB3mLfroqLa9pdRGDmpKZZx2QsMprxYCnWytFyIEw16T8Kk0ttvvz0912yavZOLdEfByoMPPuisN8LZR0aaAjf89pHYFpAyTVDDygMPPOBwzBHiPJonKl/m29/+9hpyH2wWTNglkLf1qrQUhPOXeOJxy0FtiIAIiIAIiIAIiIAIDJxAJ2dZFI4zuHF2lkXsZOKXIoR2ImQb8fkINcR3M85dzBuqd27nE73477777nNmNuodL+J4Jg4zEacL6zbY5D73uc95h4bEae6WPpzHkvqY5ZmvD85kTPl0q6yyio/JHafLW8fpzV577eUIy2FT4pyZ37o5c+Y4mxribMAr7xS/b+utt/aOtGyk1TuYLEz44gEz6XeEHLGRZ1+3cXaKRjxMnBMRnsSsnVqc87RdZ1bTLLuNS9hszwOjd90EM1ZMV60i6d/MmTMTwlsMUrApzjrYKbKxHmQ9quRND449oAnzOmNe8Xqn4eMqZSmtCIiACIiACIiACIjA1CQQz180RWpgEBiJC9+xw/RVsOWWW/pyWSLM3WN0lHBtnaTsCGOnPMb1mCnungkcujkc7TmsBuEEDIDd87+IeUP07mptODPs8sdtHoTvnaCHYt68ed5leUhgNsTO4rgUBg8N6fpd4prYPD+5OISHDal7N7395l33+fS22HC+D0BqtvA+ZEZRGaZ4O7PdLjqs/SIgAiIgAiIgAiIgAiLQkQDWa3x/BrH5lWG19iUWhTvssIMzr+o+hIjFtvXhNmovKMoQPeD666/3e2x+qV9iFYkeY07nopRTZ5XwJoz0Ittvv72z+bYdL75nhTE2J6UEhjNRGssIw88obBYk2JkL/jKn9JXmiCOOcDaymebBg2q9Gun2IFcYMjeXu17xQ5nmjyF14r+Y3bv/Q6kmBorZ7zvztFm6OhYGxGFWKxEBERABERABERABERCBXgjE3/TEo7WQYb1kU/oclDULMeLMn4kjbiODOoMUzFCJBc33NtdmHlLd5z//ea+H5MV0HGRdxiVvs7J0mM/avFM/eNetXj0rjARVjwVb3SLoBAnFRhg7WXMl7DbYYAPHvmEIQTw/9alPtRRFr8awFC0UxkGJeXsaVNbKVwREQAREQAREQAREYAoQiBXGzTbbbOBXjFJ64oknOguz4Swmuttoo42cRSwYaLmUt/fee7stttjC6yDmdMdZlIGBljmumT/00EPOvPf66jE30zzbdq1qTwojo2CxsxtKMVfBDgcs4yQWk8ftv//+uVUapCKXW2DNO9dee22H0yGJCIiACIiACIiACIiACPRKIB4EGqQ5aly/D33oQ87iNnpTUUwizat2aUvFOJ+y6zjyec973uMdD/ENbR5Ty546Uekwz0VZtnCC3lHptttuW+r6XlYqVSaRBb50FBiEoV6LXRM2x2LJMOuOO+7osNGdRNHo4iTeVV2TCIiACIiACIiACAyPAPP4MNVE8OjJCNwwhLIsdqN7y1ve4n2dzJo1a+DFoiSir0xVZRHABx54oMNHyjrrrFNphLUnhTEeuqZwRrqWXnppVsdGLMaKe/zxx8emPnVWhHmfzF+UiIAIiIAIiIAIiIAIiECvBFDcDjvsMD9djNATgzYNjeuJ80bmE1o0AHfhhRd6a8X4+DisMyiGwKnpcvTRR7vTTz/drbzyyu6KK65oC5HS6fp6isO47rrr+hgjIWOc15x88slhcyyW8+fPd9dcc03LSOhYVKyGSuDJCDtsiQiIgAiIgAiIgAiIgAg0mQDOIXfaaSeHBeOjjz7qYyWOy/Ucc8wxfiSOwTILzzcu1apcDywul1pqKe9LhhibOAGqIpUVRkbtKCQ2SWVIebvttqtSrtKKgAiIgAiIgAiIgAiIgAiIgA9xgVIzLKeUVZCj0L785S+vcspYpq0S0SJ7AZVNUrPzFxmixfOpRAREQAREQAREQAREQAREQASqEkCfGEdlkeuYBGWR6ygb/pC0WamsMGbnL66++uqVhzWzldC2CIiACIiACIiACIiACIiACIjA+BGorDDGrne5nGHEaxk/bKqRCIiACIiACIiACIiACIiACEw+gUoK4xNPPOHjl8RY8GwkEQEREAEREAEREAEREAEREAERmDwClRTG66+/3mUD3muEcfIeCl2RCIiACIiACIiACIiACIiACECgksJImIpYiOOx/PLLx7u0LgIiIAIiIAIiIAIiIAIiIAIiMCEESimMzz33nLvqqqvcOeec03LZxAPERatEBERABERABERABERABERABERg8ggUxmG8+eab3fbbb+8DaBJ/pJMsvvjibskll3RnnXWW23rrrTsl1TEREAEREAEREAEREAEREAEREIGGEFikqJ6//e1vHX8LL7ywj9ux6KKLumnTpjmWL7zwgmPUkb9nn33W/7G+2GKLFWWn/SIgAiIgAiIgAiIgAiIgAiIgAg0jUDjC2LDrUHVFQAREQAREQAREQAREQAREQARqJlBqDmPNZU6Z7O644w53yy23TJnr1YWKgAiIgAiIgAiIgAiIgAhMFgEpjAO6n4ceeqhbc8013Xrrree+9a1vDagUZSsCIiACIiACIiACIiACIiACgyMghXEAbP/85z+70047Lc2ZeZ4SERABERABERABERABERABEWgaASmMA7hjiyyyiFtjjTUc3mM33HBDt9VWWw2gFGUpAiIgAiIgAiIgAiIgAiIgAoMlIKc3A+L7pz/9yS1YsMAttdRSAypB2YqACIiACIiACIiACIiACIjAYAlIYRwsX+UuAiIgAiIgAiIgAiIgAiIgAo0lIJPUxt46VVwEREAEREAEREAEREAEREAEBktACuNg+Sp3ERABERABERABERABERABEWgsgUUaW/MxrPjtt9/u5s+f75ZZZhm36aabumWXXXYMa6kqiYAIiIAIiIAIiIAIiIAIiEA5AlIYy3HqmOqFF15ws2bNcuecc06aDmXxm9/8pttggw3SfVoRAREQAREQAREQAREQAREQgSYRkElqDXfr0EMP9criNtts42688UYfUuP3v/+9O+SQQ2rIXVmIgAiIgAiIgAiIgAiIgAiIwGgIyEtqn9yvvvpqN3PmTLf22mu7efPmuWnTprlNNtnE3XDDDY54jH/4wx/8vj6L0ekiIAIiIAIiIAIiIAIiIAIiMHQCGmHsE/nxxx/vc5g9e7ZXDJ988kl3yy23+H1Jknilsc8idLoIiIAIiIAIiIAIiIAIiIAIjISAFMY+sN91113uBz/4gVtxxRXdDjvs4HO69NJL3TPPPOPXN954Y7fwwgv3UYJOFQEREAEREAEREAEREAEREIHREZDC2Af7hx56yC200ELugAMOSEcSY8c3u+++ex+561QREAEREAEREAEREAEREAERGC0BzWHsk//zzz+fjiLee++97vWvf73DFHXxxRd3v/vd79wrX/nKPkvQ6SIgAiIgAiIgAiIgAiIgAiIwGgIaYeyTe2xyyugiyiLyvve9T8pin2x1ugiIgAiIgAiIgAiIgAiIwGgJSGGsiT+KYmyOus8++9SUs7IRAREQAREQAREQAREQAREQgdEQkMJYE/fvf//77p577vG5zZgxw73tbW/z65isPvXUUzWVomxEQAREQAREQAREQAREQAREYHgEpDDWxPrss89Oc9p77729Mxx2EKNxmWWWcU888UR6XCsiIAIiIAIiIAIiIAIiIAIi0AQCcnpTw11asGCBW3755d0f//hHn9svf/lLt9JKK7lf//rXbvr06f4YDnDwqCoRAREQAREQAREQAREQAREQgaYQ0AhjDXdq/vz5qbK44YYbemWRbM8880zvBGffffeVslgDZ2UhAiIgAiIgAiIgAiIgAiIwXAJSGGvgzTzFIJtuuqlfZZTxpJNO8p5SDzrooHBYSxEQAREQAREQAREQAREQARFoDAEpjDXcqvXXX99NmzbN53T33Xe7yy+/3G2++ebu2WefdXPnznXLLrtsDaUoCxEQAREQAREQAREQAREQAREYLgHNYayJ98UXX+x23XVX99xzz/kcl1hiCXfqqae6WbNm1VSCshEBERABERABERABERABERCB4RKQwlgj70ceecTNmzfP57jBBhu45ZZbrsbclZUIiIAIiIAIiIAIiIAIiIAIDJeAFMbh8lZpIiACIiACIiACIiACIiACItAYAprD2JhbpYqKgAiIgAiIgAiIgAiIgAiIwHAJSGEcLm+VJgIiIAIiIAIiIAIiIAIiIAKNISCFsTG3ShUVAREQAREQAREQAREQAREQgeESkMI4XN4qTQREQAREQAREQAREQAREQAQaQ0AKY2NulSoqAiIgAiIgAiIgAiIgAiIgAsMlIIVxuLxVmgiIgAiIgAiIgAiIgAiIgAg0hsD/B3CpxQ0tOx+eAAAAAElFTkSuQmCC;" vertex="1" parent="1">
          <mxGeometry x="30" y="104" width="180" height="28.15" as="geometry" />
        </mxCell>
        <mxCell id="SEG9erpF0mwY1YkcLR5i-2" value="" style="rounded=1;whiteSpace=wrap;html=1;strokeColor=#00CCCC;dashed=1;" vertex="1" parent="1">
          <mxGeometry x="210" y="120" width="120" height="240" as="geometry" />
        </mxCell>
        <mxCell id="SEG9erpF0mwY1YkcLR5i-3" value="" style="rounded=1;whiteSpace=wrap;html=1;strokeColor=#00CCCC;dashed=1;" vertex="1" parent="1">
          <mxGeometry x="80" y="200" width="120" height="160" as="geometry" />
        </mxCell>
        <mxCell id="SEG9erpF0mwY1YkcLR5i-4" style="edgeStyle=orthogonalEdgeStyle;rounded=0;orthogonalLoop=1;jettySize=auto;html=1;exitX=1;exitY=0.5;exitDx=0;exitDy=0;entryX=0.5;entryY=1;entryDx=0;entryDy=0;endArrow=blockThin;endFill=1;" edge="1" parent="1" source="SEG9erpF0mwY1YkcLR5i-7" target="SEG9erpF0mwY1YkcLR5i-12">
          <mxGeometry relative="1" as="geometry">
            <mxPoint x="270" y="340" as="targetPoint" />
          </mxGeometry>
        </mxCell>
        <mxCell id="SEG9erpF0mwY1YkcLR5i-5" style="edgeStyle=orthogonalEdgeStyle;rounded=0;orthogonalLoop=1;jettySize=auto;html=1;entryX=0.5;entryY=1;entryDx=0;entryDy=0;endArrow=blockThin;endFill=1;" edge="1" parent="1" source="SEG9erpF0mwY1YkcLR5i-7" target="SEG9erpF0mwY1YkcLR5i-10">
          <mxGeometry relative="1" as="geometry">
            <mxPoint x="140" y="340" as="targetPoint" />
            <Array as="points">
              <mxPoint x="140" y="370" />
            </Array>
          </mxGeometry>
        </mxCell>
        <mxCell id="SEG9erpF0mwY1YkcLR5i-6" style="edgeStyle=orthogonalEdgeStyle;rounded=0;orthogonalLoop=1;jettySize=auto;html=1;endArrow=none;endFill=0;" edge="1" parent="1" source="SEG9erpF0mwY1YkcLR5i-7">
          <mxGeometry relative="1" as="geometry">
            <mxPoint x="10" y="370" as="targetPoint" />
          </mxGeometry>
        </mxCell>
        <mxCell id="SEG9erpF0mwY1YkcLR5i-7" value="&lt;font style=&quot;font-size: 12px;&quot; face=&quot;Times New Roman&quot;&gt;Whitening&lt;/font&gt;" style="rounded=0;whiteSpace=wrap;html=1;fillColor=#f5f5f5;gradientColor=#b3b3b3;strokeColor=#666666;" vertex="1" parent="1">
          <mxGeometry x="40" y="360" width="60" height="20" as="geometry" />
        </mxCell>
        <mxCell id="SEG9erpF0mwY1YkcLR5i-8" value="&lt;b&gt;&lt;font face=&quot;Times New Roman&quot;&gt;S&lt;/font&gt;&lt;/b&gt;" style="text;html=1;align=center;verticalAlign=middle;resizable=0;points=[];autosize=1;strokeColor=none;fillColor=none;" vertex="1" parent="1">
          <mxGeometry x="10" y="340" width="30" height="30" as="geometry" />
        </mxCell>
        <mxCell id="SEG9erpF0mwY1YkcLR5i-9" style="edgeStyle=orthogonalEdgeStyle;rounded=0;orthogonalLoop=1;jettySize=auto;html=1;exitX=0.5;exitY=0;exitDx=0;exitDy=0;endArrow=none;endFill=0;entryX=0.5;entryY=1;entryDx=0;entryDy=0;" edge="1" parent="1" source="SEG9erpF0mwY1YkcLR5i-10" target="SEG9erpF0mwY1YkcLR5i-14">
          <mxGeometry relative="1" as="geometry">
            <mxPoint x="139.8571428571429" y="300" as="targetPoint" />
          </mxGeometry>
        </mxCell>
        <mxCell id="SEG9erpF0mwY1YkcLR5i-10" value="&lt;font face=&quot;Times New Roman&quot;&gt;Input layer&lt;/font&gt;" style="rounded=0;whiteSpace=wrap;html=1;fillColor=#dae8fc;gradientColor=#7ea6e0;strokeColor=#6c8ebf;" vertex="1" parent="1">
          <mxGeometry x="110" y="330" width="60" height="20" as="geometry" />
        </mxCell>
        <mxCell id="SEG9erpF0mwY1YkcLR5i-11" style="edgeStyle=orthogonalEdgeStyle;rounded=0;orthogonalLoop=1;jettySize=auto;html=1;entryX=0.5;entryY=1;entryDx=0;entryDy=0;endArrow=none;endFill=0;" edge="1" parent="1" source="SEG9erpF0mwY1YkcLR5i-12" target="SEG9erpF0mwY1YkcLR5i-16">
          <mxGeometry relative="1" as="geometry" />
        </mxCell>
        <mxCell id="SEG9erpF0mwY1YkcLR5i-12" value="&lt;font face=&quot;Times New Roman&quot;&gt;Input layer&lt;/font&gt;" style="rounded=0;whiteSpace=wrap;html=1;fillColor=#dae8fc;gradientColor=#7ea6e0;strokeColor=#6c8ebf;" vertex="1" parent="1">
          <mxGeometry x="240" y="330" width="60" height="20" as="geometry" />
        </mxCell>
        <mxCell id="SEG9erpF0mwY1YkcLR5i-13" style="edgeStyle=orthogonalEdgeStyle;rounded=0;orthogonalLoop=1;jettySize=auto;html=1;endArrow=none;endFill=0;entryX=0.5;entryY=1;entryDx=0;entryDy=0;" edge="1" parent="1" source="SEG9erpF0mwY1YkcLR5i-14" target="SEG9erpF0mwY1YkcLR5i-17">
          <mxGeometry relative="1" as="geometry">
            <mxPoint x="140" y="260" as="targetPoint" />
          </mxGeometry>
        </mxCell>
        <mxCell id="SEG9erpF0mwY1YkcLR5i-14" value="&lt;font face=&quot;Times New Roman&quot;&gt;Hidden layer 1&lt;/font&gt;" style="rounded=0;whiteSpace=wrap;html=1;fillColor=#fff2cc;gradientColor=#ffd966;strokeColor=#d6b656;" vertex="1" parent="1">
          <mxGeometry x="100" y="300" width="80" height="20" as="geometry" />
        </mxCell>
        <mxCell id="SEG9erpF0mwY1YkcLR5i-15" style="edgeStyle=orthogonalEdgeStyle;rounded=0;orthogonalLoop=1;jettySize=auto;html=1;exitX=0.5;exitY=0;exitDx=0;exitDy=0;endArrow=none;endFill=0;" edge="1" parent="1" source="SEG9erpF0mwY1YkcLR5i-16" target="SEG9erpF0mwY1YkcLR5i-23">
          <mxGeometry relative="1" as="geometry" />
        </mxCell>
        <mxCell id="SEG9erpF0mwY1YkcLR5i-16" value="&lt;font face=&quot;Times New Roman&quot;&gt;Hidden layer 1&lt;/font&gt;" style="rounded=0;whiteSpace=wrap;html=1;fillColor=#fff2cc;gradientColor=#ffd966;strokeColor=#d6b656;" vertex="1" parent="1">
          <mxGeometry x="230" y="300" width="80" height="20" as="geometry" />
        </mxCell>
        <mxCell id="SEG9erpF0mwY1YkcLR5i-17" value="&lt;font face=&quot;Times New Roman&quot;&gt;Batch normalization&lt;/font&gt;" style="rounded=0;whiteSpace=wrap;html=1;fillColor=#f8cecc;gradientColor=#ea6b66;strokeColor=#b85450;" vertex="1" parent="1">
          <mxGeometry x="90" y="271.5" width="100" height="20" as="geometry" />
        </mxCell>
        <mxCell id="SEG9erpF0mwY1YkcLR5i-18" style="edgeStyle=orthogonalEdgeStyle;rounded=0;orthogonalLoop=1;jettySize=auto;html=1;exitX=0.5;exitY=0;exitDx=0;exitDy=0;endArrow=none;endFill=0;entryX=0.5;entryY=1;entryDx=0;entryDy=0;" edge="1" parent="1" source="SEG9erpF0mwY1YkcLR5i-17">
          <mxGeometry relative="1" as="geometry">
            <mxPoint x="140" y="260" as="targetPoint" />
            <mxPoint x="140" y="240" as="sourcePoint" />
          </mxGeometry>
        </mxCell>
        <mxCell id="SEG9erpF0mwY1YkcLR5i-19" style="edgeStyle=orthogonalEdgeStyle;rounded=0;orthogonalLoop=1;jettySize=auto;html=1;endArrow=none;endFill=0;entryX=0.5;entryY=1;entryDx=0;entryDy=0;" edge="1" parent="1" source="SEG9erpF0mwY1YkcLR5i-20" target="SEG9erpF0mwY1YkcLR5i-21">
          <mxGeometry relative="1" as="geometry">
            <mxPoint x="140" y="180" as="targetPoint" />
          </mxGeometry>
        </mxCell>
        <mxCell id="SEG9erpF0mwY1YkcLR5i-20" value="&lt;font face=&quot;Times New Roman&quot;&gt;Output layer&amp;nbsp;&lt;/font&gt;" style="rounded=0;whiteSpace=wrap;html=1;fillColor=#d5e8d4;gradientColor=#97d077;strokeColor=#82b366;" vertex="1" parent="1">
          <mxGeometry x="105" y="240" width="70" height="20" as="geometry" />
        </mxCell>
        <mxCell id="SEG9erpF0mwY1YkcLR5i-21" value="&lt;font face=&quot;Times New Roman&quot;&gt;&amp;nbsp;Q value&lt;/font&gt;" style="rounded=0;whiteSpace=wrap;html=1;fillColor=#ffcd28;gradientColor=#ffa500;strokeColor=#d79b00;" vertex="1" parent="1">
          <mxGeometry x="117.5" y="210" width="45" height="20" as="geometry" />
        </mxCell>
        <mxCell id="SEG9erpF0mwY1YkcLR5i-22" style="edgeStyle=orthogonalEdgeStyle;rounded=0;orthogonalLoop=1;jettySize=auto;html=1;entryX=0.5;entryY=1;entryDx=0;entryDy=0;endArrow=none;endFill=0;" edge="1" parent="1" source="SEG9erpF0mwY1YkcLR5i-23" target="SEG9erpF0mwY1YkcLR5i-25">
          <mxGeometry relative="1" as="geometry" />
        </mxCell>
        <mxCell id="SEG9erpF0mwY1YkcLR5i-23" value="&lt;font face=&quot;Times New Roman&quot;&gt;Batch normalization&lt;/font&gt;" style="rounded=0;whiteSpace=wrap;html=1;fillColor=#f8cecc;gradientColor=#ea6b66;strokeColor=#b85450;" vertex="1" parent="1">
          <mxGeometry x="220" y="271.5" width="100" height="20" as="geometry" />
        </mxCell>
        <mxCell id="SEG9erpF0mwY1YkcLR5i-24" style="edgeStyle=orthogonalEdgeStyle;rounded=0;orthogonalLoop=1;jettySize=auto;html=1;entryX=0.5;entryY=1;entryDx=0;entryDy=0;endArrow=none;endFill=0;" edge="1" parent="1" source="SEG9erpF0mwY1YkcLR5i-25" target="SEG9erpF0mwY1YkcLR5i-27">
          <mxGeometry relative="1" as="geometry" />
        </mxCell>
        <mxCell id="SEG9erpF0mwY1YkcLR5i-25" value="&lt;font face=&quot;Times New Roman&quot;&gt;Hidden layer 2&lt;/font&gt;" style="rounded=0;whiteSpace=wrap;html=1;fillColor=#fff2cc;gradientColor=#ffd966;strokeColor=#d6b656;" vertex="1" parent="1">
          <mxGeometry x="230" y="240" width="80" height="20" as="geometry" />
        </mxCell>
        <mxCell id="SEG9erpF0mwY1YkcLR5i-26" style="edgeStyle=orthogonalEdgeStyle;rounded=0;orthogonalLoop=1;jettySize=auto;html=1;entryX=0.5;entryY=1;entryDx=0;entryDy=0;endArrow=none;endFill=0;" edge="1" parent="1" source="SEG9erpF0mwY1YkcLR5i-27" target="SEG9erpF0mwY1YkcLR5i-29">
          <mxGeometry relative="1" as="geometry" />
        </mxCell>
        <mxCell id="SEG9erpF0mwY1YkcLR5i-27" value="&lt;font face=&quot;Times New Roman&quot;&gt;Batch normalization&lt;/font&gt;" style="rounded=0;whiteSpace=wrap;html=1;fillColor=#f8cecc;gradientColor=#ea6b66;strokeColor=#b85450;" vertex="1" parent="1">
          <mxGeometry x="220" y="210" width="100" height="20" as="geometry" />
        </mxCell>
        <mxCell id="SEG9erpF0mwY1YkcLR5i-28" style="edgeStyle=orthogonalEdgeStyle;rounded=0;orthogonalLoop=1;jettySize=auto;html=1;endArrow=none;endFill=0;entryX=0.5;entryY=1;entryDx=0;entryDy=0;" edge="1" parent="1" source="SEG9erpF0mwY1YkcLR5i-29" target="SEG9erpF0mwY1YkcLR5i-30">
          <mxGeometry relative="1" as="geometry">
            <mxPoint x="270" y="130" as="targetPoint" />
          </mxGeometry>
        </mxCell>
        <mxCell id="SEG9erpF0mwY1YkcLR5i-29" value="&lt;font face=&quot;Times New Roman&quot;&gt;Output layer&amp;nbsp;&lt;/font&gt;" style="rounded=0;whiteSpace=wrap;html=1;fillColor=#d5e8d4;gradientColor=#97d077;strokeColor=#82b366;" vertex="1" parent="1">
          <mxGeometry x="235" y="180" width="70" height="20" as="geometry" />
        </mxCell>
        <mxCell id="SEG9erpF0mwY1YkcLR5i-30" value="&lt;font face=&quot;Times New Roman&quot;&gt;Power and modular normalization&lt;/font&gt;" style="rounded=0;whiteSpace=wrap;html=1;fillColor=#ffcd28;gradientColor=#ffa500;strokeColor=#d79b00;" vertex="1" parent="1">
          <mxGeometry x="220" y="140" width="100" height="30" as="geometry" />
        </mxCell>
        <mxCell id="SEG9erpF0mwY1YkcLR5i-31" value="" style="endArrow=blockThin;html=1;rounded=0;exitX=0.5;exitY=0;exitDx=0;exitDy=0;endFill=1;entryX=-0.006;entryY=0.163;entryDx=0;entryDy=0;entryPerimeter=0;" edge="1" parent="1" source="SEG9erpF0mwY1YkcLR5i-3" target="SEG9erpF0mwY1YkcLR5i-2">
          <mxGeometry width="50" height="50" relative="1" as="geometry">
            <mxPoint x="10" y="160" as="sourcePoint" />
            <mxPoint x="200" y="150" as="targetPoint" />
            <Array as="points">
              <mxPoint x="140" y="160" />
            </Array>
          </mxGeometry>
        </mxCell>
        <mxCell id="SEG9erpF0mwY1YkcLR5i-32" value="" style="endArrow=blockThin;html=1;rounded=0;exitX=-0.006;exitY=0.039;exitDx=0;exitDy=0;endFill=1;exitPerimeter=0;entryX=0;entryY=0.5;entryDx=0;entryDy=0;" edge="1" parent="1" source="SEG9erpF0mwY1YkcLR5i-2" target="SEG9erpF0mwY1YkcLR5i-14">
          <mxGeometry width="50" height="50" relative="1" as="geometry">
            <mxPoint x="110" y="150" as="sourcePoint" />
            <mxPoint x="100" y="250" as="targetPoint" />
            <Array as="points">
              <mxPoint x="60" y="130" />
              <mxPoint x="60" y="310" />
            </Array>
          </mxGeometry>
        </mxCell>
        <mxCell id="SEG9erpF0mwY1YkcLR5i-33" value="" style="endArrow=blockThin;html=1;rounded=0;exitX=1.008;exitY=0.387;exitDx=0;exitDy=0;exitPerimeter=0;endFill=1;" edge="1" parent="1" source="SEG9erpF0mwY1YkcLR5i-2">
          <mxGeometry width="50" height="50" relative="1" as="geometry">
            <mxPoint x="370" y="250" as="sourcePoint" />
            <mxPoint x="400" y="213" as="targetPoint" />
          </mxGeometry>
        </mxCell>
        <mxCell id="SEG9erpF0mwY1YkcLR5i-34" value="&lt;font face=&quot;Times New Roman&quot;&gt;Critic&lt;br&gt;network&lt;/font&gt;" style="text;html=1;align=center;verticalAlign=middle;resizable=0;points=[];autosize=1;strokeColor=none;fillColor=none;" vertex="1" parent="1">
          <mxGeometry x="10" y="271.5" width="60" height="40" as="geometry" />
        </mxCell>
        <mxCell id="SEG9erpF0mwY1YkcLR5i-35" value="&lt;font face=&quot;Times New Roman&quot;&gt;Actor&lt;br&gt;network&lt;/font&gt;" style="text;html=1;align=center;verticalAlign=middle;resizable=0;points=[];autosize=1;strokeColor=none;fillColor=none;" vertex="1" parent="1">
          <mxGeometry x="330" y="272" width="60" height="40" as="geometry" />
        </mxCell>
        <mxCell id="SEG9erpF0mwY1YkcLR5i-36" value="&lt;font face=&quot;Times New Roman&quot;&gt;Output&lt;/font&gt;" style="text;html=1;align=center;verticalAlign=middle;resizable=0;points=[];autosize=1;strokeColor=none;fillColor=none;" vertex="1" parent="1">
          <mxGeometry x="326" y="186" width="60" height="30" as="geometry" />
        </mxCell>
        <mxCell id="SEG9erpF0mwY1YkcLR5i-37" value="" style="shape=image;verticalLabelPosition=bottom;labelBackgroundColor=default;verticalAlign=top;aspect=fixed;imageAspect=0;image=data:image/png,iVBORw0KGgoAAAANSUhEUgAAAh4AAABECAYAAADOSTzyAAAMPmlDQ1BJQ0MgUHJvZmlsZQAASImVVwdYU8kWnltSIbQAAlJCb4JIDSAlhBZAercRkgChxBgIKnZkUcG1oGIBG7oqothpdsTOotj7YkFFWRcLduVNCui6r3xvvm/u/PefM/85c+7MvXcAUD/OFYtzUQ0A8kQFktiQAEZySiqD9BRgwAioADKw5vLyxazo6AgAy2D79/LuOkBk7RUHmdY/+/9r0eQL8nkAINEQp/PzeXkQHwAAr+aJJQUAEGW8+ZQCsQzDCrQlMECIF8hwpgJXy3C6Au+R28THsiFuA4CsyuVKMgFQuwR5RiEvE2qo9UHsJOILRQCoMyD2zcubxIc4DWIbaCOGWKbPTP9BJ/NvmulDmlxu5hBWzEVeyIHCfHEud9r/mY7/XfJypYM+rGBVzZKExsrmDPN2M2dSuAyrQtwrSo+MglgL4g9CvtweYpSaJQ1NUNijhrx8NswZ0IXYic8NDIfYEOJgUW5khJJPzxAGcyCGKwSdKizgxEOsB/ECQX5QnNJmo2RSrNIX2pAhYbOU/FmuRO5X5uu+NCeBpdR/nSXgKPUxtaKs+CSIqRBbFAoTIyFWg9gxPycuXGkzuiiLHTloI5HGyuK3gDhWIAoJUOhjhRmS4FilfVle/uB8sY1ZQk6kEu8ryIoPVeQHa+Nx5fHDuWCXBCJWwqCOID85YnAufEFgkGLu2DOBKCFOqfNBXBAQqxiLU8W50Up73EyQGyLjzSB2zS+MU47FEwvgglTo4xniguh4RZx4UTY3LFoRD74URAA2CAQMIIU1HUwC2UDY0dvYC+8UPcGACyQgEwiAg5IZHJEk7xHBaxwoAn9CJAD5Q+MC5L0CUAj5r0Os4uoAMuS9hfIROeAJxHkgHOTCe6l8lGjIWyJ4DBnhP7xzYeXBeHNhlfX/e36Q/c6wIBOhZKSDHhnqg5bEIGIgMZQYTLTFDXBf3BuPgFd/WJ1xJu45OI/v9oQnhE7CQ8I1Qhfh1kRhseSnKMeALqgfrMxF+o+5wK2gphsegPtAdaiM6+IGwAF3hX5YuB/07AZZtjJuWVYYP2n/bQY/PA2lHcWJglKGUfwpNj+PVLNTcxtSkeX6x/woYk0fyjd7qOdn/+wfss+HbfjPltgCbD92BjuBncMOY42AgR3DmrB27IgMD62ux/LVNegtVh5PDtQR/sPf4JOVZTLfqc6px+mLoq9AMFX2jgbsSeJpEmFmVgGDBb8IAgZHxHMcwXB2cnYBQPZ9Uby+3sTIvxuIbvt3bt4fAPgcGxgYOPSdCzsGwF4PuP2bv3M2TPjpUAHgbDNPKilUcLjsQoBvCXW40/SBMTAHNnA+zsAdeAN/EATCQBSIBylgAow+C65zCZgCZoC5oBSUg6VgJVgLNoDNYDvYBfaBRnAYnACnwQVwCVwDd+Dq6QYvQB94Bz4jCEJCaAgd0UdMEEvEHnFGmIgvEoREILFICpKGZCIiRIrMQOYh5UgFshbZhNQie5Fm5ARyDulEbiEPkB7kNfIJxVBVVBs1Qq3QkSgTZaHhaDw6Hs1EJ6NFaAm6GF2N1qA70Qb0BHoBvYZ2oS/QfgxgKpguZoo5YEyMjUVhqVgGJsFmYWVYJVaD1WMt8DlfwbqwXuwjTsTpOAN3gCs4FE/AefhkfBa+CF+Lb8cb8Db8Cv4A78O/EWgEQ4I9wYvAISQTMglTCKWESsJWwkHCKbiXugnviESiLtGa6AH3YgoxmziduIi4jribeJzYSXxE7CeRSPoke5IPKYrEJRWQSklrSDtJx0iXSd2kD2QVsgnZmRxMTiWLyMXkSvIO8lHyZfJT8meKBsWS4kWJovAp0yhLKFsoLZSLlG7KZ6om1ZrqQ42nZlPnUldT66mnqHepb1RUVMxUPFViVIQqc1RWq+xROavyQOWjqpaqnSpbdZyqVHWx6jbV46q3VN/QaDQrmj8tlVZAW0yrpZ2k3ad9UKOrOapx1Phqs9Wq1BrULqu9VKeoW6qz1CeoF6lXqu9Xv6jeq0HRsNJga3A1ZmlUaTRr3NDo16RrjtKM0szTXKS5Q/Oc5jMtkpaVVpAWX6tEa7PWSa1HdIxuTmfTefR59C30U/RubaK2tTZHO1u7XHuXdod2n46WjqtOos5UnSqdIzpdupiulS5HN1d3ie4+3eu6n4YZDWMNEwxbOKx+2OVh7/WG6/nrCfTK9HbrXdP7pM/QD9LP0V+m36h/zwA3sDOIMZhisN7glEHvcO3h3sN5w8uG7xt+2xA1tDOMNZxuuNmw3bDfyNgoxEhstMbopFGvsa6xv3G28Qrjo8Y9JnQTXxOhyQqTYybPGToMFiOXsZrRxugzNTQNNZWabjLtMP1sZm2WYFZsttvsnjnVnGmeYb7CvNW8z8LEYozFDIs6i9uWFEumZZblKsszlu+trK2SrOZbNVo9s9az5lgXWddZ37Wh2fjZTLapsblqS7Rl2ubYrrO9ZIfaudll2VXZXbRH7d3thfbr7DtHEEZ4jhCNqBlxw0HVgeVQ6FDn8MBR1zHCsdix0fHlSIuRqSOXjTwz8puTm1Ou0xanO6O0RoWNKh7VMuq1s50zz7nK+aoLzSXYZbZLk8srV3tXget615tudLcxbvPdWt2+unu4S9zr3Xs8LDzSPKo9bjC1mdHMRcyzngTPAM/Znoc9P3q5exV47fP6y9vBO8d7h/ez0dajBaO3jH7kY+bD9dnk0+XL8E3z3ejb5Wfqx/Wr8Xvob+7P99/q/5Rly8pm7WS9DHAKkAQcDHjP9mLPZB8PxAJDAssCO4K0ghKC1gbdDzYLzgyuC+4LcQuZHnI8lBAaHros9AbHiMPj1HL6wjzCZoa1hauGx4WvDX8YYRchiWgZg44JG7N8zN1Iy0hRZGMUiOJELY+6F20dPTn6UAwxJjqmKuZJ7KjYGbFn4uhxE+N2xL2LD4hfEn8nwSZBmtCaqJ44LrE28X1SYFJFUlfyyOSZyRdSDFKEKU2ppNTE1K2p/WODxq4c2z3ObVzpuOvjrcdPHX9ugsGE3AlHJqpP5E7cn0ZIS0rbkfaFG8Wt4fanc9Kr0/t4bN4q3gu+P38Fv0fgI6gQPM3wyajIeJbpk7k8syfLL6syq1fIFq4VvsoOzd6Q/T4nKmdbzkBuUu7uPHJeWl6zSEuUI2qbZDxp6qROsb24VNw12Wvyysl9knDJ1nwkf3x+U4E2/JFvl9pIf5E+KPQtrCr8MCVxyv6pmlNFU9un2U1bOO1pUXDRb9Px6bzprTNMZ8yd8WAma+amWcis9Fmts81nl8zunhMyZ/tc6tycub8XOxVXFL+dlzSvpcSoZE7Jo19CfqkrVSuVlN6Y7z1/wwJ8gXBBx0KXhWsWfivjl50vdyqvLP+yiLfo/K+jfl3968DijMUdS9yXrF9KXCpaen2Z37LtFZoVRRWPlo9Z3rCCsaJsxduVE1eeq3St3LCKukq6qmt1xOqmNRZrlq75sjZr7bWqgKrd1YbVC6vfr+Ovu7zef339BqMN5Rs+bRRuvLkpZFNDjVVN5Wbi5sLNT7YkbjnzG/O32q0GW8u3ft0m2ta1PXZ7W61Hbe0Owx1L6tA6aV3PznE7L+0K3NVU71C/abfu7vI9YI90z/O9aXuv7wvf17qfub/+gOWB6oP0g2UNSMO0hr7GrMauppSmzuaw5tYW75aDhxwPbTtserjqiM6RJUepR0uODhwrOtZ/XHy890TmiUetE1vvnEw+ebUtpq3jVPips6eDT588wzpz7KzP2cPnvM41n2eeb7zgfqGh3a394O9uvx/scO9ouOhxsemS56WWztGdRy/7XT5xJfDK6aucqxeuRV7rvJ5w/eaNcTe6bvJvPruVe+vV7cLbn+/MuUu4W3ZP417lfcP7NX/Y/rG7y73ryIPAB+0P4x7eecR79OJx/uMv3SVPaE8qn5o8rX3m/OxwT3DPpedjn3e/EL/43Fv6p+af1S9tXh74y/+v9r7kvu5XklcDrxe90X+z7a3r29b+6P777/LefX5f9kH/w/aPzI9nPiV9evp5yhfSl9Vfbb+2fAv/dncgb2BAzJVw5b8CGKxoRgYAr7cBQEsBgA7PZ9SxivOfvCCKM6scgf+EFWdEeXEHoB7+v8f0wr+bGwDs2QKPX1BffRwA0TQA4j0B6uIyVAfPavJzpawQ4TlgY+jX9Lx08G+K4sz5Q9w/t0Cm6gp+bv8F76V8XF6Lj3sAAABsZVhJZk1NACoAAAAIAAQBGgAFAAAAAQAAAD4BGwAFAAAAAQAAAEYBKAADAAAAAQACAACHaQAEAAAAAQAAAE4AAAAAAAAAkAAAAAEAAACQAAAAAQACoAIABAAAAAEAAAIeoAMABAAAAAEAAABEAAAAANccYuoAAAAJcEhZcwAAFiUAABYlAUlSJPAAACXxSURBVHgB7Z0J/DbV9MBvtuxkzf4KJUoIofS+SHaVrZXIkkT2UooisquEyr5HvbYQhbwopFfIvrTIliX7lmX+53v/znRmfjPzzPo8M7/3nM/n95uZO/feuXPufc6ce9b1EoHg4BhwDEwCAz/96U/DZz7zmfDjH/84/v3oRz8Kf/jDH8LNbnazcKtb3SpstNFGYZtttgmrVq0K66233iTeyQfpGHAMrFsYWM8Zj3Vrwv1tHQOOAceAY8AxsEgMXG6RD/dnOwYcA44Bx4BjwDGwbmHgCuvW6/rbOgYcA44Bx4BjYJoYwDLiBz/4Qfjb3/7W+gWuetWrhtve9rat2/fR0BmPPrDofTgGHAOOAceAY2BgDJx88slhhx126PSUy1/+8uH3v/99uMY1rtGpny6NnfHogj1v6xhwDDgGHAOOgTlh4MQTT1zypJvc5CZh8803D7e4xS3i3zWvec1MneOOOy6ce+65adljH/vYhTIdDMSNS9Pp8BPHgGPAMeAYcAyMEwP/+c9/wg1ucINwySWXxAGuWLEiHHzwwWHPPfcMV7hCsQwBCclOO+0UaAvg8XbaaaeFK1/5yvF6Uf+KR7uo0fhzHQOOAceAY8Ax4BhYgoEzzjgjZTrudKc7hS9+8Yvhale72pJ6WvCVr3wl7LLLLinTsemmm4aPfexjC2c6GJ97tegs+dEx4BhwDDgGHAMjxQBMA3CjG90oMhBVTAfxfR760IemRqi0+dSnPhU22GCDUbydMx6jmAYfhGPAMeAYcAw4BsoxoIzHS17yknDTm960tOLFF18cHvCAB4Tf/va3sQ5GpKecckq4+c1vXtpm3jfcxmPeGPfnOQYcA44Bx4BjoAEGvv/97wdUJde73vXCRRddVKou+ctf/hKjFq9duzb2fsUrXjF88pOfDNttt12Dpw1f1W08hsdx4yf8/Oc/D8cff3x4xjOeEa5znes0br+uNfjc5z4XzjvvvLDXXnuFy13OhXjr2vy3fV92jhDqPGy44YbhWc96Vr54UtdOQ9pPFx/tU089NTztaU9buPeHvsXpp58eT/fee+9SpuPf//53eNSjHhWU6aDB2972tkZMR1daSiqHN7/5zTrszHG33XYLW2yxxf+XETLdYTwY+PKXv5wIs5FIno3k7LPPHs/ARjySpzzlKeQbSh70oAclf/3rX0c8Uh/amDAgHgJx3bB27N9mm202pmE2HovTkMYoyzQQw824Ht74xjdmyhd5ceGFFyZHHnlkIuqT0mE8/vGPz6zjI444orRu2Y2utFTySGXGYH9XL3vZy9LHzlXigUsPSa5+8pOfxARX6KDwPd5kk01iJLW8/7EMep0Ckn/tuOOOQT6eQSYpbLnlluvU+7d92Ve/+tXh61//ehQp3u9+94tGVIsMjtP2PbzdYjCAvhw3RYX73//+ejq5o9OQ7lP2xz/+MXZC8sU+gEijeKDwvUNdgtqjyjC06JnYZyABL4NDDjkkvP3tb09vP/WpTw3Pf/7z0+u6J11pKXT3zne+c+Zx3/72t8Oll16aKZsL44GFLaqDd7zjHanBS2YUckEmzUc84hEB8eeiw7nmxzaP6+9973vx/WE6ZOfeatHMY5xjfAY/4pNOOiku+DPPPDPsscce4cMf/rCrXUY4Weiq3/KWt6TW9kMNEUbihS98Ya01sP/++4enP/3pnYcCjfvlL3/ZuR86gIDvu+++Yf3116/dn9OQ2qiaS0VoEepfGA8LMBEEArvb3e5mi1ufEyDs8MMPT9uzeX3961+fXjc56UpLeSer6uHZZM1GFZ6BVPYxwIn8EJLtt98+qg3koVEEc6973St58YtfnHzoQx9KPvjBDyaiS03ucIc7pOIZCeeaPOlJT0qEQxpgROPsUsLXJre5zW0iDiS9eaU4bZxvMI5RibtYIjYeEY8HHnjgOAblo8hgQEW5Sg+GPIq+OfPs/IWqWo4++uj8rcbXohtPaVhf7wT9rAtOQ+piana9jTbaKM6lVQ3MbnVZjf/+97/JAQcckNIikVwnEsgrEc+SRCKMxr5vfetb96IWFk+XhG+mrrl73OMeieRxuWwwLc/6pKVF+BxE4iGID6997WsD4p9//OMfgpMQtt1223DYYYdFi9tY8L9/GMNQ/3nPe15sgzoG4xSMvt7znvfU2rHY/qZ4TghbpEJEn/vABz4Qrnvd607xNRY+ZkTkrDnWmeg3w9Zbbx0e/OAHL3xcPoDLMPCc5zwn3PCGN4ySz6997WvhrLPOijdXrVoVhGimFUW/HhB5U3fXXXcNV7nKVSKd+NnPfhZVteygfv3rX6f19QTpxStf+cp4+a9//UuLBz8iYSsCxs173e52t4uG4te+9rUDuTIsiE1GOOGEE2xReMhDHtJI8us0JIO+hV6gElGJAzRJNtmBxGwA8896wAjzBS94QXjd617Xeqz5AGEbb7xxIFIpa64rDE5LWzJEpc3Ehzi55z3vmXJgGEnWNXLBeEYQlv6Jnqr0OcvlBhyrvvOrXvWq5fJaC3sPYVwTEfdFnMJp//3vf1/YWPzBszEgH+Q4V0Ko08rCMCRCPGP5Rz7ykbQ8f/K73/0uSk8xxtbf0AMf+MD0fJbEoE+Jxy1vecv0uYxF7NWSo446KvnnP/+ZH3bmGqNBYa4ybcUOIBH7gky9qgunIVXYaX6vaIdetxfZ9KRzyZpAEpUHCeYV68hGM/nTn/6Uv13r+oc//GEirrXps1hDwozXalu3Ul+0tAifoe4g6tQTF66EH40SAdEXJbITqNM0rXOXu9wlbU8/a9asSe8ttxOIkqpYJNFPAsF16I6B1atXp2sItZ7DeDHwyEc+Ms6V3Zz86le/SufvF7/4xczBQ7xFYpq2UfozL8bjO9/5TubZIsVN6oz7z3/+cyLuhZm2Iu1MZqmILEKchlhs9HNe9KGs0zNMsq49jl/4whcKm2F+oPU+8YlPFNapKuT3oWOkn6tf/eqJ2FWUNhEbk0Q0CKX3q270QUt1rFZ11VvQA7xVVq5cGeTHLrgIUZyI+BFDlyZw0EEHZaqjslmugDgOFQuwzz77lCb6Wa7vP9R7seZEhxq7R+Uiu8qhHuX9dsSAJqtC3aqAulWBgEmzAENM1CtVVv+z+uhyH/G2Aqo9sV2LYa21rOjI+2IE/c1vfjO9TbAnIfTRGC8tnHHiNGQGguZ0Gw8YaLjC7rvvHsSeUS8zR9QtCsTNaAKYILDG1FgT9TyGqnlPEu2TtYnXqGzAtKjRcSha2gvjgS72Pve5T9Rb6VvhDoprY1PgRUVElTYjTKx+nNPCZXCC9woePACW609+8pOXwVuN4xUIIvbsZz87DkZULQEXMYdxYwCvtiLI20MU1dEyNinQoXnDxz/+8fhIPGkI2FQH2GB99KMfzVQ99thj4+YtU1hx4TSkAjlzvkXAOevRlN9A2+HYNf2tb33L3qo8LwoQhj0k4dHLAA8ygKRybWAoWtoL4yFeKNHgS18Mg1GMvNoABEgsf9OmIgYK73//+9Pr5XKC+6f6i++8887h+te//nJ5tVG8x+Me97gYXpjBYKSsRs6jGJwPojMG2Pk985nPjMbY2hlEUoIo6eVcjmJnEjAOBcRGLRMPpGwA73znO8MrXvGKzG2MbnG9bAJOQ5pga7i6zD+hIhTue9/7RmNivc4fxeskLWL91AU2pyR6U0CKAZ0rA4yvCZd+pStdKYZoKKs3q3wIWtqZ8YBLR9SjgB/wMccco5etjqITyrTDAni5gQ32st9++y2311v4+2DZTYheADEoRNph+WCAGAlivBle+tKXZl4KbxDEzwCqi6GB5FuohpB2iL3KzMd96UtfWiLdJIuoeuLM7MBUcBpikLHAUxtDg2HMoueEs1cQOx89rTzmA4TBhFBWBe9+97sDUhKkgF2Ccw5BSzsxHqhA8jkN0LPyI+wCK1asyDQ///zzM9dTvyByqxgexdcguIpHKB1mRnHhVlCRo177cdoY0KBMeUkW+nOCgfExr8rg2dfbq5rlMY95zExGBzr28Ic/PBPFUWIYhfe9732NwwY4DelrBrv1oxGTtRfMBGB+q8B+z5BGzIJ8gDD6x928ClD7KFPe1M6yqN++aWmnOB6HHnpoRoTNj/65z31u0bgbleXDXduJatTRSCuL9TPeRHF0W2211UhHOf1hbbPNNulLELIY1da1rnWttMxPposBjf9R9AbzNEhn84V6GHVzFbCzfdjDHhZ+85vfpNWIUYLxn3glpGV1T5yG1MXUsPX0465PIVQ5Kr8ygCGw6pVZjAfrgwi2CkQGJdaTtRPRe/YogfqCuPLGtcm66wp909LWjIe4kC0JeoOecoMNNuj6jqntg3ZkjXa0bMpHPoIKfYXN1f6wkqd/xHkEUEJ6xKK54x3vqFVGdUTf+elPfzqwnsQtMhrX3fve904D7nQZLIRd3JWjcTJeBGeccUYnXWeXsXjb/jDAx3ssqjOCQ2HkiedAGbD2CIJGzgoFvHnw+iN8dhsYkoYwninRkSFpSNXcsA5xfrAwS932jW98w1ZP7dAyhf+7yAcIw1MPCZsGIytqc8kll8RgnDouNrYSN6SoaqOyvmlpa8aDPAjWBQ69qnUnavRWucp5CUebHUGuy9FcIukYgmjgzoyRKou1COB6iY7YR1S7ov6blsEUodcmcp/dAUgQtRjhkR8YO0mstpFSoEet+sGVPR+XNvWKAu/kwXGYLgZItIUVf17Fsqg3IsnlLCAqs8RryFRD9WcjtWZuzrgYiobw2CnRkXnRkLLpgPnFhkKBHGNs9KogL6krcyqAZqEuVENU6mFYWlYfJghGlmio/EYU+lCzaF+90lJZxI2B4DjyUUiDoMjAYk6Wxh2VNLDRB+lbQsGW1JxesQ02JMZvvUTWJE+ERrGTHVQiFtYJke0kvHQizEYiP4Y4V5KEbxQIY1w2ui1pqE8//fTkggsuSMQNNo6VoDgiskzXWNNAdPqiYoCX9iGSHy3240gwILEs4vzY4EIEIuR3zx/RExXOPvvs5Pa3v316j/sE4GsLfUYuLRuDMM6Z8TLmgw8+uKx6rfIhaAgPnhIdGZKGFAW8KpoY8o7pOuVI3rFZYIOH0UYyyC5pQiBJYWIyfYsZQyLhKTJ/4j2TkAdGmN9MXTsmScq4pP+2BW1paRE+W0k8EOPI4OX9LoNZIqbLalafIUX56le/mqmEmGe5ANk5FXAb1gBKWtb0CHe70047RfXUZpttFkiLbfGFFESiosZgNoiFEcVJiOmmj+mtPmozOGeVasHVE3BJ8fCa17wmSGS+aHBnH6r3bVmdcysCV4PEOu2GrsNOid0lcUbmBUglJQlhK8nRvMaYfw7xgFgPeI9o0CTqkPvku9/9br76qK4///nPB3T+FqCTbYM5aT990xD6nRIdmTcNUbzbI6psPJQsyIbZXi4559uWl0gX2fjhhZcPekjZaaedtqTPqgIMQi39q6pb557tqzMtbcP95CUSQtASEfW06WpJG0kctYR7Ez/iJfWmWiDBrNL3k49u59cQC/60P2E6lvR37rnnJrqzk8UVJQtLKs2pgLC9NkS0LOTCXAUSVCd9J8YshlSJGIa2GiUcP33oX9vQwa0eXtFI7KHSMenY5nEU8X7FqOZ/a5bEowgnT3jCE5LPfvazEX9jlXgQ9pzw53b8pIMQe5DOSO6bhjCgqdCRedCQoh16ftLEEykztzrP0KqyPyvB1fp1Quvnn72o67a0tAifjSUeBO7Jh3nFQLJOaGNB9kxgx54HArLMA9ihkOXR6u3qPJcAK+zM6oDu9KlrQ+fWaZuvQ/wAdRMF/0V4IniWzeLZh6FRfhx1r4kgakNEM/a8BxN9IQnCFkWlAYQDbuuHnpfuiDoniLi+7pAHqzfLKn2oB9tw5EM9o89+cTfFG8nuAN/61reGJhEf+xxPnb4YL5I8a7uE1JFIpW3slPLP7JOG0PeU6MgiaEge/1znJReU4c0iTAGnhWBtIqmAYfEi6XHhICsK+6SljRkPRCySmCgzvLve9a6Z6y4XRYzHdttt16XL2m3f9a53hYsuuiitf/e73z1A+FggGPVg7AgIlxpwJQZwh2qSel2y98Z2/Ovq2il2HOnHmY801vUEcLMg3GZ6SapjUicvAhCXYziqwFisi5aWc8S7xa6xVatW2duNzvGyYt6UICCmHQPjgRseQYDmaSSJqqWtF0UjpPdY+ZxzzokEHbUUxnMwq3iHiGS0x6f01xUfcdSbmrOKnmE2YDpufOMb9/KgPmkIA5oKHVkUDSmatLw5AOqzWQG92BjaTTvee1OCPmlpY8bDRl1TpPUVAIuPZ15vJqL5sOGGG+qjBjtCMDTZE8wGyZds0BR9MLsYLWfXSvCfrbfeWm/PPKqVMhW7SjxggBRgOvBc4YMGw6TAxw0cwo33ySBq/3WPeEExRoWqhF6sAbs76MJ48LFFWsIuFLD417Es4si4CB7nUA8DMEysmSc+8Ykx8WTRBqVeT8PWIqAi7uEKML1saPqikfRr13BXGkJ/U6Eji6Ih4MgC3jQwxBb0m2DL7DkbDA2tr+W77LKLnk7i2CctLY90UoIKsSZeckd0l0vK2hRATOxOlz4IhFIH2CW/6EUvikwBP0aYAT7Cl156aZ3mkeHBwArjOwhH0UIiCBCufBi1QVBw9RRPkVr9ayVLNLpKPCBmVmQPN42LHv7eEGhc+PiAY8C0SKYDfNnkWaiFqhIIrlmzRtEV369MMpJWmnFiRYQW/zOa+e0RYgCJHgGU+vjg9v16b3rTm+KGxfZLIsgqGoGxN5sDDKzrgl3DXWkIz5wCHVk0DbFzg+rafleQehcZido2qPFVdUw5NHBeknw7jq7nfdHSxoyH5Y71JTQFuV63PfLDtSDGWWHPPfe0RYXnfGCxckfcRQhbvCbQAYvbWszXUUevTSRAAGaiSMLCokFvKy59sR7xJ9okpLILtmtMDYhvEdNHOGX04ITWBS+IUhcJhPe1c4BqCu65DPiRKnSx79A+rPppOcWE0fdb144QPxjrMYEYuy7J0UHae+IqVAH5VqA5qJHqQp80hGdOgY4smobYuSFmhoU63okaWl/bwYxW0UCtN7ZjX7S0MeORRwQcdx/JmAiYYjPv8RykHbM+zuwUdthhhxipk2Q4MEaoTFRls3r16nD00Ufnh73kGhdhFhC2B3lAtIYbnO7EDz300Cj2zderc23dQq3qoU7bojowQFWGvdjkIDGwRp1F/QxZZkXPPKcIx/p8pEowjwpd1Czah8Wz3S3qfT9ODwNsLgBUiIsGGHsyclujdCSPavhdNT4y1QKzXDFtH33TEPoeOx1ZNA2x+LcBuihHlV0FqFlQyVuYFWLf1h3TeV+0tPGvNh+prw9RH4jF8FANALnGEIuIf1UAF7n77rvH3TQ7e5gM9X5gMai6pA4BgGnJp6rm2agqSABFemEAHS4qnbZgrdrV7qBtX7SDwKE7ZHel757vDw79gAMOyBfP5RrVXD67cJWIkbDmloD3wXhYPFv8zwUB/pBBMMAmAY+oKkNh6AdMt53/vgdDPgwkoRwVoJFIUNdff30tKjyyGRB396hObGKgbtdwX+82ZjoyBhpiJ9B6K1FO/KQqYHNs1wfq+j5tfqqe3fc9u97sOmz6nHJ5d0lPZN+zUDetr22TPyd+PaoBC8ccc0yl1weSDdQwfKT4gSPlyOt9EdOTBRb9ILtorssAcWcR7L333lGnzL299torEOCqC1hRlZ3ELn2i6iIFMuoMjJ4IFAb+7NygvoCxU8+cLs9r0tZ6CdGOsZaF/eW+VbNgv9LVvoM+LZ4t/rm3KIB4YZMzTwkMkklc3/tSjS4KdzwXOoSuvSzJFvglWRwbB/IASaTc3ocL7UHSYVWZMEPQojoZuvnNAtijoVauC3YN27Vdt31ZvbHSkTHQEIsza1dHeX4zbutyfuyxx2aKDjrooMz1lC7serPrsOk7dGY84OTQORYRAD50fPQRh2666aalY9tvv/0yXgykjiYaZxVIEKEYhZM6iK2s26i2sxE8cW+rYjy0jT2SaVelJahajj/++M4fbpuqG4PYtsBuCSJn35sfBDYf/DH2Rz/60QHdM4DRLoZsTQhc27HZdvkEf7OS4qk6iz6sfQcuhMQkIddK1Vqyz+acuDPWvoR4CmMACQ0fvR3mPRY8afISqHmPoa/nWZVDvk+IvXpG2d9Ivl6Xa+iW/r7oBzqHSB1pzCyAMZLUBrEaquIm0BcN4ZlToCOLpiH5ucmrtqticWBraL1ZVq5cGW0Q831O4bpPWtpY1bJixYpgFz4Is4hVBCJBgOtHDIUaBG+RIsttdiU2aRoiKOsBof3ZIzsKtQdB2nHggQfa2+k5H1qFIqNYvVd0xBpdpRuIxt773vdmPEiK2tQpsxKjvMiuTns+Grj7km2WzKvgoggwwLOqI2xl+sgcXPSsqjJrCEe9qiy5LGw13qWuVbNgXAYzhUdDEyDUsALSnlm7E6079BHRNmpKPp7z+sOwtonr99A4GKp/JKgvf/nLY/es+SJj8a7Pxt0+bwxP0kMMuusAmbz199+U8ehKQxjflOjIomlIfj7z0qwqO0TolgKb8ze84Q16Obljn7S0MePBrnrffffNIC2feZEPHi5iiHaxhyCqJwwCqhHEngowD/vvv79eRiYFI6JZdiPWWBRpR1lgHuv6qz/y9GEVJ/SPzziAqB/bkSKJTkUXpbdg3BRsmmwtm3XERRi9MMCOTpKrlTaxHhzowusY4tHnmWeeGdM924inpQ+ZcQOG00KeabX3ULeV2XeojU1TqZXd3bNOZund7XiGPMdwmh8y3lLz+kP1psaMQ77bIvtGpYq9BEws0EQ6Vnfc0ChsvSwggYWZqANISXQe+F02jefSlYYwxiHpyHKjIfk5RWpqaWmZuhQVnN1Eo2KpsknKP2ds173SUlGHNAb5iCdiWEJs2PgnE5EIUYv9iCtnIju4RH5MMTuqdi5eKzGjrTAasWjt2rWJMBhpH+RcEJGaVi892syMPF9EhaV1bfZA2S2X1rM3yMAnO+M4LrKmysfB3o7nkqwnkZ1NQhbBpnCBZGBVvHFsmuNG4nFk2gsBKx2CcNdpXbH5KK1nb4iKK20jzFYiTKW93fjcZhrlfUVCU9gHcy+qsfTZzIHiXiIWxky1rCtRTxW2LysUJjjtU7xpyqp5+YIwsNtuu8X5sdlpmW/9jYgqt9bIhGFNyGHCmtW2HGVjUtpecxjJRqO0Tv6GqI4zdItniPg8kV15vmrhNfQKeqljFGltYb2qwq40hL6HpCNTpyGimluyJvPzYbNri5ND/na8FgY4nWdRv9VeI4WdjaCwLS0twicGh62A1M764+EoUQVjP5rAqGgyZPeRiIg5IcGOiKfS9sLBJxISudY4ZKeYthOxeWUb+yE7/PDDK+ty86STTooJfngf0hLLjr+wDYRGxJ2F9+oUihQgfQeR+tRpktYRG4fYVqRJibj1puX5ExhBETHHukx8HcIoHHo6Lp1biCREvQuIaijt98gjj1zSFWMTFUBah2ezJhRE5RXvie+7FtU+im1O2q/s8mq384rzwYCoMeP8iFdb+kAYetlRxvKqjQUNYExoK5FN03lWhoJ1VLTe9EFary7jIW6UcUOlvw2OYpCZUD4LRKqViMtqInZZ6ThpLzk/ZjUtvN+FhtDhUHRkOdCQog9lfhKOOOKIdB7t2tV6YmOU3hcbkETy6+ityR7b0tIifLZmPEScluy6664pciEUYoiZSJK1+PEu+ljluWza7LPPPpF41JkNiIxY0qbPJKNiGYiaJa3HD5yFUAUwALpbgqERS+rC6ux46E+MAwvv1ynUXR79NP0YKmMH4yMWxoWPY+wSNj2OU1QLSRETWNTwhBNOyOCM8fEnniZF1WuXibgx7RcplAWItuQsSO/rM8U2KFYTMWaiCxfGsCnYD5J4ODVt7vV7xgB0AykfvyMJJZ6wPplzPv5sPvRPy8XQPJFYNGm5eG3FDQK7L1HdZugB/bDu+ZiLa3nsV6Ihl75BE8YD5lhsjjLrVNTOibh/J2JLlvnj/fgAMw7xXEnEGy7dBOj65sjGAHy0gS40hOcNRUeWAw1RemOlcPk5QrKvm2c2ohZElZaua6T6s5hn23bM521paRE+WzMeIEg8JRIJfZ35MeoPC9WKAh8Xdh7i7prWRY0hiXa0SnrkhyheCOm1PdEfiz4DlUcZnHjiiemzqF/18RXj1lR1BDGwY8/3D7GjPwlQlr9V+9pywxDWJoD6QbxW4hiQRhx33HGJ6N4SxK8S/TCRSImJuKvG+3DaTXZU5513XrrTVBxzFOv7JkNcUpd1gppD+4RpY1xHHXVUlGxQjoQJtYwyp6hVRJeeMrdIRIqY2SUPMwVWZE9/EsjH3PXTRWAARlvXwTyOrIEyaMJ4iOFo7+MWO7iyoc0s70JD6HwoOrIcaEjRh7JoQuyGSpwRErEvSjhKRNK4Vuin6BtX1NfYy7rQ0iJ8dmI8QBZMAhMgRoOZHyZMhhhmRlEkOwNLZA477LDSjwi7CnRjRWD1avQH1w8jUPQn3hOZZ5bZUrBY1NZELOATcX8qenQsE3fO2CfMSRlzVNrY3MCeQRcnTAIf5iaAjY0ENUslNBa3nCO5Qc/Kh7wpsAtFfMyHWplK8VBq2s2S+kguENWpCF3HjMoI9ZkYA8Y2Z511Vny+3ufIB+L8FqJKiWeSrgFJyLRkTF4wfwxgk6TSDDvHfZ+zzlbmdqL5t23CeEgwsnQt9TFWJLdNNgX5sXelIfQ3FB2ZOg0p+lDm8a/XYmSc2gTquuB7Z2ma1p3ysQstLcJnZ8ZDkcmHBWNGyV8S7ThgPPi4sitnFysxJdIfrsTU0GaZI6JwJq9Il89utS3BwnC1CBiHSgfEAyQRt+CiaomEiY0qERWtsai6wo477pjiA/FkG4ALlXTbUXIAp430A8kOot8+ACaM+RBvkz66i30gSkfSIXl1Egx5xc15Sd9INsAJdXh22/fBAFiJwamnnrrkOV6wbmOgCeMxRkz1QUN4ryHpyBRpSNGHsmr+xTsxqvKR5p1yyimlKvCqPsZ+rwstLcJnb4zHLMQhcqr6CCBBUB0qH6Q8iItn2p5+MNSCGSn6UzsMfZ4klMp3F6UBVkojEQjj4kGEyR8fR3GPi0yQGmlqf318xGAQtD9sHMYIOkZwPzVAB6vSFQzxukiopvbuPt56GJg646G/T+iI05B6c16nVtGHsk675VqnKy0twmfjyKWyyFuB2CCk7QjpnU+LLkamMVw2+UYIQ5wHG/+De8KklMZkyCcUIux5Hog9YuN8iE1I4G8WiIFNkB/5rGoz7xOUjBgXhAMmFgc+3xtvvPHMdvOsoFEZh4iFMPR7ELhH7IXiY4gpI0zI0I/0/h0Dc8WA05C5onudfdgQtHRu1NgG8CJ4jojSY64FPm5kmiQcOUBCtqIY8GKjkU48keKqEvOI+iGtS46GotTxBB4TDrXx34UXXthLOmMCsYmLbzpOUZOk52M4ATcwYuLhsyQHzhjGVzUGAvpo4B5R9QXCkzs4BpYbBpyGLLcZHd/7DEVL58Z4kCtEgUiN4oobyKVCplJNYc8PKR8VVdtYxmOTTTYp/fiTO0b7o63EF9EuRneEydLkVTBjXXK39P1yJLBCIlQ2H30/r8/+yOnCOgCIotsli2Kf4/K+HAN9Y8BpSN8Y9f4sBoaipXNjPGzCNvti9lzicpSGOLaZVqvCbqPGEePE2C31SDg3ViB3CFlkUQMgEUIlMAaAASK8L9l+xZB2DEOqPQZy8hxyyCGxvsR0COL5VLutV3QMTA0DTkOmNmPTGe+QtHRujEdVcjCmgqylYhVcOiskPVMoYzzEgDCTGI3dunjWaLNRHiWeSSDLJUACNJLrLRKwixDX0yCuuEGi08YMuIscT5NnM/8wGuSYQR1HEi8Is4NjYDljwGnIcp7dxbzb0LR0bowHBoo777xzIRa33XbbIBbalSJx8SxJ29rztFBOyCArwb9iEamLxyJBsGMsOpeQu6nBKqqhvCFtUZuhymD+xCUsSByQ2kmvhhpL035J7LdmzZrYTKLoVmbCbdq313cMjBkDTkPGPDvTG9vQtHRujAeohzEQN9j4Udtqq61itlpsCSQkd5B4GpWzQwp4BbixPFBmjTUxVrVSknz9MV0jlcGQU9yOYqZSGDTsYBYB4mIY1SvMy5QATybJnxCHLMGeXMUypclb8FgxpJ46OA2Z+gyOZ/xzoaVT8T0myZLmaSEYWR6IuSFTF//IjTBFIL+DeJHEd9hjjz1a53GY4rt3GTNRTTUQHNlIhQnt0p23XUcwoHE8lG7oUVKXTxYDTkO6Tx2Z1VkLJIJb16ArLSU3kv6O8keb+2auEg8ZSGuQEN5BoqfF9ojTcfNRkIBfQTKYxkvqoNufIiDVkaRTYYsttghYEy9S5TIl/GEIK/mAguSpiW7ZHrNjSrO3uLGWrRO866YKTkO6z5zkuIqd6LF7j9PpoSstrWtTuR4c3VTQgpXtlltuGSTEbxSl40q2evXqIJFOA6oWCSEc44NIaPWpvFLhOCUteJDoqIEAQVMmgoUvN0ChRKoNuGtjZOfgGKiLATYwF1988ZLqBAnEI2rK4DSk/ezhYbh27dqw/fbbt+9koi37oKUnn3xyoanA5ptvnnqtTorxYC4ln0og+JeVBmBsisTDXScnutp92I4Bx4BjwDGwzmBgcoyHzgwhxs8555ygXJS7TSpm/OgYcAw4BhwDjoHxYmCyjMd4Ueojcww4BhwDjgHHgGOgDAOTMS4tewEvdww4BhwDjgHHgGNgOhhwxmM6c+UjdQw4BhwDjgHHwOQx4IzH5KfQX8Ax4BhwDDgGHAPTwYAzHtOZKx+pY8Ax4BhwDDgGJo8BZzwmP4X+Ao4Bx4BjwDHgGJgOBpzxmM5c+UgdA44Bx4BjwDEweQw44zH5KfQXcAw4BhwDjgHHwHQw8H/FlVr8tyFETwAAAABJRU5ErkJggg==;" vertex="1" parent="1">
          <mxGeometry x="80" y="142" width="120" height="15.05" as="geometry" />
        </mxCell>
        <mxCell id="SEG9erpF0mwY1YkcLR5i-38" value="" style="shape=image;verticalLabelPosition=bottom;labelBackgroundColor=default;verticalAlign=top;aspect=fixed;imageAspect=0;image=data:image/png,iVBORw0KGgoAAAANSUhEUgAAAWwAAABGCAYAAADo365dAAAMPmlDQ1BJQ0MgUHJvZmlsZQAASImVVwdYU8kWnltSIbQAAlJCb4JIDSAlhBZAercRkgChxBgIKnZkUcG1oGIBG7oqothpdsTOotj7YkFFWRcLduVNCui6r3xvvm/u/PefM/85c+7MvXcAUD/OFYtzUQ0A8kQFktiQAEZySiqD9BRgwAioADKw5vLyxazo6AgAy2D79/LuOkBk7RUHmdY/+/9r0eQL8nkAINEQp/PzeXkQHwAAr+aJJQUAEGW8+ZQCsQzDCrQlMECIF8hwpgJXy3C6Au+R28THsiFuA4CsyuVKMgFQuwR5RiEvE2qo9UHsJOILRQCoMyD2zcubxIc4DWIbaCOGWKbPTP9BJ/NvmulDmlxu5hBWzEVeyIHCfHEud9r/mY7/XfJypYM+rGBVzZKExsrmDPN2M2dSuAyrQtwrSo+MglgL4g9CvtweYpSaJQ1NUNijhrx8NswZ0IXYic8NDIfYEOJgUW5khJJPzxAGcyCGKwSdKizgxEOsB/ECQX5QnNJmo2RSrNIX2pAhYbOU/FmuRO5X5uu+NCeBpdR/nSXgKPUxtaKs+CSIqRBbFAoTIyFWg9gxPycuXGkzuiiLHTloI5HGyuK3gDhWIAoJUOhjhRmS4FilfVle/uB8sY1ZQk6kEu8ryIoPVeQHa+Nx5fHDuWCXBCJWwqCOID85YnAufEFgkGLu2DOBKCFOqfNBXBAQqxiLU8W50Up73EyQGyLjzSB2zS+MU47FEwvgglTo4xniguh4RZx4UTY3LFoRD74URAA2CAQMIIU1HUwC2UDY0dvYC+8UPcGACyQgEwiAg5IZHJEk7xHBaxwoAn9CJAD5Q+MC5L0CUAj5r0Os4uoAMuS9hfIROeAJxHkgHOTCe6l8lGjIWyJ4DBnhP7xzYeXBeHNhlfX/e36Q/c6wIBOhZKSDHhnqg5bEIGIgMZQYTLTFDXBf3BuPgFd/WJ1xJu45OI/v9oQnhE7CQ8I1Qhfh1kRhseSnKMeALqgfrMxF+o+5wK2gphsegPtAdaiM6+IGwAF3hX5YuB/07AZZtjJuWVYYP2n/bQY/PA2lHcWJglKGUfwpNj+PVLNTcxtSkeX6x/woYk0fyjd7qOdn/+wfss+HbfjPltgCbD92BjuBncMOY42AgR3DmrB27IgMD62ux/LVNegtVh5PDtQR/sPf4JOVZTLfqc6px+mLoq9AMFX2jgbsSeJpEmFmVgGDBb8IAgZHxHMcwXB2cnYBQPZ9Uby+3sTIvxuIbvt3bt4fAPgcGxgYOPSdCzsGwF4PuP2bv3M2TPjpUAHgbDNPKilUcLjsQoBvCXW40/SBMTAHNnA+zsAdeAN/EATCQBSIBylgAow+C65zCZgCZoC5oBSUg6VgJVgLNoDNYDvYBfaBRnAYnACnwQVwCVwDd+Dq6QYvQB94Bz4jCEJCaAgd0UdMEEvEHnFGmIgvEoREILFICpKGZCIiRIrMQOYh5UgFshbZhNQie5Fm5ARyDulEbiEPkB7kNfIJxVBVVBs1Qq3QkSgTZaHhaDw6Hs1EJ6NFaAm6GF2N1qA70Qb0BHoBvYZ2oS/QfgxgKpguZoo5YEyMjUVhqVgGJsFmYWVYJVaD1WMt8DlfwbqwXuwjTsTpOAN3gCs4FE/AefhkfBa+CF+Lb8cb8Db8Cv4A78O/EWgEQ4I9wYvAISQTMglTCKWESsJWwkHCKbiXugnviESiLtGa6AH3YgoxmziduIi4jribeJzYSXxE7CeRSPoke5IPKYrEJRWQSklrSDtJx0iXSd2kD2QVsgnZmRxMTiWLyMXkSvIO8lHyZfJT8meKBsWS4kWJovAp0yhLKFsoLZSLlG7KZ6om1ZrqQ42nZlPnUldT66mnqHepb1RUVMxUPFViVIQqc1RWq+xROavyQOWjqpaqnSpbdZyqVHWx6jbV46q3VN/QaDQrmj8tlVZAW0yrpZ2k3ad9UKOrOapx1Phqs9Wq1BrULqu9VKeoW6qz1CeoF6lXqu9Xv6jeq0HRsNJga3A1ZmlUaTRr3NDo16RrjtKM0szTXKS5Q/Oc5jMtkpaVVpAWX6tEa7PWSa1HdIxuTmfTefR59C30U/RubaK2tTZHO1u7XHuXdod2n46WjqtOos5UnSqdIzpdupiulS5HN1d3ie4+3eu6n4YZDWMNEwxbOKx+2OVh7/WG6/nrCfTK9HbrXdP7pM/QD9LP0V+m36h/zwA3sDOIMZhisN7glEHvcO3h3sN5w8uG7xt+2xA1tDOMNZxuuNmw3bDfyNgoxEhstMbopFGvsa6xv3G28Qrjo8Y9JnQTXxOhyQqTYybPGToMFiOXsZrRxugzNTQNNZWabjLtMP1sZm2WYFZsttvsnjnVnGmeYb7CvNW8z8LEYozFDIs6i9uWFEumZZblKsszlu+trK2SrOZbNVo9s9az5lgXWddZ37Wh2fjZTLapsblqS7Rl2ubYrrO9ZIfaudll2VXZXbRH7d3thfbr7DtHEEZ4jhCNqBlxw0HVgeVQ6FDn8MBR1zHCsdix0fHlSIuRqSOXjTwz8puTm1Ou0xanO6O0RoWNKh7VMuq1s50zz7nK+aoLzSXYZbZLk8srV3tXget615tudLcxbvPdWt2+unu4S9zr3Xs8LDzSPKo9bjC1mdHMRcyzngTPAM/Znoc9P3q5exV47fP6y9vBO8d7h/ez0dajBaO3jH7kY+bD9dnk0+XL8E3z3ejb5Wfqx/Wr8Xvob+7P99/q/5Rly8pm7WS9DHAKkAQcDHjP9mLPZB8PxAJDAssCO4K0ghKC1gbdDzYLzgyuC+4LcQuZHnI8lBAaHros9AbHiMPj1HL6wjzCZoa1hauGx4WvDX8YYRchiWgZg44JG7N8zN1Iy0hRZGMUiOJELY+6F20dPTn6UAwxJjqmKuZJ7KjYGbFn4uhxE+N2xL2LD4hfEn8nwSZBmtCaqJ44LrE28X1SYFJFUlfyyOSZyRdSDFKEKU2ppNTE1K2p/WODxq4c2z3ObVzpuOvjrcdPHX9ugsGE3AlHJqpP5E7cn0ZIS0rbkfaFG8Wt4fanc9Kr0/t4bN4q3gu+P38Fv0fgI6gQPM3wyajIeJbpk7k8syfLL6syq1fIFq4VvsoOzd6Q/T4nKmdbzkBuUu7uPHJeWl6zSEuUI2qbZDxp6qROsb24VNw12Wvyysl9knDJ1nwkf3x+U4E2/JFvl9pIf5E+KPQtrCr8MCVxyv6pmlNFU9un2U1bOO1pUXDRb9Px6bzprTNMZ8yd8WAma+amWcis9Fmts81nl8zunhMyZ/tc6tycub8XOxVXFL+dlzSvpcSoZE7Jo19CfqkrVSuVlN6Y7z1/wwJ8gXBBx0KXhWsWfivjl50vdyqvLP+yiLfo/K+jfl3968DijMUdS9yXrF9KXCpaen2Z37LtFZoVRRWPlo9Z3rCCsaJsxduVE1eeq3St3LCKukq6qmt1xOqmNRZrlq75sjZr7bWqgKrd1YbVC6vfr+Ovu7zef339BqMN5Rs+bRRuvLkpZFNDjVVN5Wbi5sLNT7YkbjnzG/O32q0GW8u3ft0m2ta1PXZ7W61Hbe0Owx1L6tA6aV3PznE7L+0K3NVU71C/abfu7vI9YI90z/O9aXuv7wvf17qfub/+gOWB6oP0g2UNSMO0hr7GrMauppSmzuaw5tYW75aDhxwPbTtserjqiM6RJUepR0uODhwrOtZ/XHy890TmiUetE1vvnEw+ebUtpq3jVPips6eDT588wzpz7KzP2cPnvM41n2eeb7zgfqGh3a394O9uvx/scO9ouOhxsemS56WWztGdRy/7XT5xJfDK6aucqxeuRV7rvJ5w/eaNcTe6bvJvPruVe+vV7cLbn+/MuUu4W3ZP417lfcP7NX/Y/rG7y73ryIPAB+0P4x7eecR79OJx/uMv3SVPaE8qn5o8rX3m/OxwT3DPpedjn3e/EL/43Fv6p+af1S9tXh74y/+v9r7kvu5XklcDrxe90X+z7a3r29b+6P777/LefX5f9kH/w/aPzI9nPiV9evp5yhfSl9Vfbb+2fAv/dncgb2BAzJVw5b8CGKxoRgYAr7cBQEsBgA7PZ9SxivOfvCCKM6scgf+EFWdEeXEHoB7+v8f0wr+bGwDs2QKPX1BffRwA0TQA4j0B6uIyVAfPavJzpawQ4TlgY+jX9Lx08G+K4sz5Q9w/t0Cm6gp+bv8F76V8XF6Lj3sAAABsZVhJZk1NACoAAAAIAAQBGgAFAAAAAQAAAD4BGwAFAAAAAQAAAEYBKAADAAAAAQACAACHaQAEAAAAAQAAAE4AAAAAAAAAkAAAAAEAAACQAAAAAQACoAIABAAAAAEAAAFsoAMABAAAAAEAAABGAAAAAPfSslwAAAAJcEhZcwAAFiUAABYlAUlSJPAAACBYSURBVHgB7Z0J/H7F9MenlFKUFomUorSoZE2WiERCO2mlKJQ9eyJtWkQqkbV9J0u0bypSyFIiPyUtSFlbRN3/5z3+577mud+7zH2e+3yf5Tvn9Xqeu82cO3Pm3rkz53zOmfkykUuUJJAkkCSQJDD2Eph/7EuYCpgkMEYSePDBB93VV1/dWYmuv/56949//KMzfonR/yRw2223uVtuuaUTcfztb39zN9xwQye8BmWSOuxBJZjyzxkJ3HPPPW6zzTZzL3jBC9xdd93VSb232GIL99znPtfNmzevE36JiXPf/e533aqrruoOP/zwTsRxzjnnuDXWWMPtv//+nfAbiAkqkURJAkkC9RL405/+lD372c/OHvawh2Wnn356feIWV6+99tpsiSWWyJZccsnsqquuapEzJS2TwDHHHOPbaL311sv+9a9/lSVpfe6hhx7KdtllF1TH2Q477JBpltWaR1cZXFeMEp8kgWmVwD//+c9stdVWy+abb77sK1/5SufVpKNeeOGFs6WXXjq78cYbO+c/Vxh+8Ytf9J3q0572tOyvf/1rp9Wmk95qq608/3e9612d8m7DLHXYbaSV0s5JCWy//fb+Rd1tt91a1V9qk+ziiy/O/vOf/zTmO+KII/w9Vllllezee+9tTJ8S9ErgF7/4RfaIRzzC/373u9/1Xmw4+tGPfpTF5Pn73/+erbTSSr6d+DiMglKHPQqpp3tOjAQYUTMVXmaZZVqN2u64447sUY96lM/7mc98Jqq+r3jFK3z6/fbbLyp9SvQ/Cci2kK2++upedtIztxLLnnvu6fMtu+yy2f3339+Y98orr/QzLWZDMkY2pu86Qeqwu5Zo4jc1EhB6w+uX6bCPP/74VvU64IADfEdA3o9//ONRedFno3aho0dnnihOAvvuu6+XNZ32Aw88EJdJqUi76KKL+rwLLbRQ9u9//zsq7+abb+7zfOADH4hK32Wiseyw//vf/2ZMU7qi6667LmM6kyhJoI0EPvnJT/oXEzVFW9poo418Xjps1CKxtOmmm/p8b33rW2OzzOl0GBYZ7SLnE044oZUsGC2Tj9+LXvSi6Lw/+clPfB7sDr///e+j83WRcOxgfQk6pccn0cglcN9997lPf/rTvhxbb711q/JowOGuuOIKn0cjNw/bi2Xwzne+0yeVjtT99re/jc02Z9MJFeL+8pe/OOT8mte8ppUcLr300jz9i1/84ny/aefpT3+6W3/99Z1UKG7vvfduSt7p9bHqsP/85z+7DTbYwH3ve99zJ554oltqqaU6qeypp57q/vjHP7rnPOc5TiP3TngmJtMtAbC3Ukv4SrbtsHGsYeABgbHWSMzvx/y98IUvdI9+9KMdnf6ZZ54Zk2VOp/na177m6y/9v5MqqZUsNPPJ07fpsMlkH4evf/3rvq1yRkPeGZsOW1Mbp2mJu+aaaxyjC0FoOqu6YD6OF1DWd7fJJpukkUtnkp1eRmeffbav3Morr+zWWWed2opK9+luv/32/Gd5ybTWWmvl5xmQNNECCyzg6Hyg8847ryn5nL7+hz/8wf385z/3Moj5qOLsZO1EXpsFzT///G755ZfPrzG7aqJXvepVPokgn+4HP/hBU/LurnehV+mCR4JOdSHFxKMLCeAo8fjHP97rKaWiaGQpz0efVm9l4/byyy9v5PelL33J88EQBgIiUbkEvvCFL+TybsJdX3DBBXnapnbacMMNy29YOPuEJzzB8/zoRz9auDK8wwW66/r75/TVr37VyWDgBJ1yMvREM0LN8ZSnPMXxlRN0ypn+r4rBHnvs4Rj9MNo+7LDD3Ec+8pGqpOn8HJbAnXfe6UdbiOCpT31qoyQ+8YlP5LEmhDxwcqzwedCrmh6cE6hGnvWsZzXyW2GFFXwaRu6XXXZZPuJuzDjHEghV42usj6tXI9VVH7l//vOfd/oY+2Tovi0/4QHUSfvzQum4Zz7zmXWs8mu006233upnQjwDs0LD+xbEcU7QqTg5pVSzJwFDAegFzGSYanVjTbPzkVwb5EF4E5xAuDc/DSzCS2k/kID0yF5GsnsFZ+N2X/ayl+UyboPiCblvueWWnsdiiy0Wnh7q/shH2J/73OecpjNO0CkntUirj9Qll1ySp0f/HUPoszEYfPOb33TCxzrun2hwCdCGWN1vvvlmd9NNN3kjL3LebrvtBmc+yxyI9Ga03HLL2W7UNnwm2xqy7AaPe9zjbNcx2k9ULgFrp7ZtJM9TJ0ifZ9oWxROWxNqJaIvMrB7+8IeHl2fsv+c97/EzN8AUjM6f97znOcWnaWWUHmmHPUroFB02xk2EiGEpUX8SYFp55JFHupNOOsmFxhoFSXIrrrjiRHbYGKaMHvnIR9pu1LaLDluBoPzLTyeQOuxqsVs7tW2jQVA8YWnkHZkf0k5NHw6Mk5q9+c7dMi6yyCJu9913d+973/vcYx7zGDtduR0pSiRBpyrbZSIuyDjm9X1f/vKXfWetqHNOXmcOuBQxhA866KCJqEexkHIrz0/JEy7fb9oJR27oqxUxrilL6XX0qNhzIDDGk0JAGZlh0SHy4QLBATSSGOJdE7pog122aSPKEX5UgRH3S2GHHdNOdNig4X7605+6t73tbX5kDXLtkEMOcYpR4u1rTWUZ6Qjb4E+x0KkwBrHlpYIGnWIfWJQ97ByXkUGnTjnlFG8wkItpWbJ0rkYCn/3sZ3uMvC996Uvdscce2zjKqGE5NpcWXHDBvCw4R8SO4IojN6bb/RI4bIgR2DgSHydFGXTnn3++/zHTCmdYYZmBzaEG4AP2yle+0v+A0Q1C8OQ9ZhZCG7WhsMPuV23F/ayN2I9tJ54tYKJHHXWUkzerky7dqw/52GH8ZLCDqqSShqohr2GeoFM1whnzS0Sf0wuYG22ky8swHk8LEVNZL4z//frXv46uFoGHLJ/sI9H5igl5N9QZeV4f+tCHipdHeowr+MEHH5xp+p7X1epsW+KhSJ9beZ10cmLLYiCOdZU16OXrX//6umQ919TB5/FDcC2PCfjUwyA4sBgm1LdfPvrI98gJiGgdjWyEnaBTemwnlDAuhrMddSqtvczGueqhLjGsZ1OZ61ydMUwxelKskCY2TnFv8tGbQfwaM81CgqOPPtrpQ+SKDkCMdhmpvu51r/MjRnS5GODuvvtup7Cl7hvf+Ia3caAuMcLjmJV7tCCA0wfAheoFS9O0pZ3QY7dpIxzzQi/U4izohz/8ocOGAFy4iUwNwoy+yKcpr10Hbvjyl7/cnXvuuf4UxlDUJJUj9rrefJjXEnRqmNIdLm+pQ3pGBdLNDfeGs8w9hOZ9+9vfjrq7psd5ONWykRsrljBqjgnJ+Zvf/CaXr5a7irr/MBNJ1eFXWlGPkpfL9oVTjwrUxqxBHX4+urX8bIHFMatpSwbNE246OqvsKnkdirMg5E5MbRkAo/htu+22nhezhUGIGUsoj7rY3CMzOhokRwVtrffsQgdlkBzunyzxSKF/YkQyTYSO0UZMv/zlL6OqRqAmHLigddddN8/PMWsMYpjdZptt3OKLL86pWgpHok984hNr0w77IqN94psovOyMW+28884e9QA0rYkwpL7lLW9xP/vZz5xW7+lJzuxj1113Lb1HT8LCAXFaIBbIDfXJhWQ9hxj8jEIoMIbRnXbayfN54xvfaElqt9ZOg7aRPWt2M+wDVTSyDtsgORQs1qhjleiiwzboFDxTh22STVskwHSU6ToUPmv+RMTfk5/85DwV0/U3velN3uiGd20MXXTRRT4Z6AfQA6MikBjg6FEjFIl4J3gLNmGPi/mQzXe+8x2vdihe0yzEXXjhhcXTlccKYeuvoeIoK2Nlxv+/ELYTahlQHKj3FFe7KatHe2BkhtZcc83G9HUJ+JjF0sg67ASdim2ilG4UEsB6DxEgKGb0xirdpm/mRUbPC2yVCJG4mNNJhbrxujqBvIDkSec0Ra9LOtRrH/vYx0qhZqC6TjvtNAfWvh+ioySCZpEYWYKUkKdn8VLpMSNsi9AX+2G1doUhciYI1Lvf/W4fpmLHHXd0igtSeq/iSe5nI+G2Dn9FXq2OB9G9DJI3tKhrhBvNKtQvytARna8sIcsCSVgZuqhE8RIo6rDbICni7zLalKGNJVZHr+l+JmNVjz5SsZOz66+/ProyMmRlMuJ5HhppR+frOqHUDH71cd6P4q+rhYhtSbQif1Y8jyVzT5fhLioLunQW0UVXbffVjCrTxynjWiy94x3v8PkVFzs2S2W6Nu/TyEbY4WgDa3IshV9SLNP9kqSXOyUMqoPqtwwp3/hKgCD1hofFQSiG1l57baePl0dGyFjp0H/j2RYzxTb+eOCiiuCZHOT5Nn79bnGAKnN4AT/d1YgS9UMZoZqIjVuPlyCEKuUmhURoItQPBOSizwG1ww97GuiXWNUEcqF9oTe84Q1+O1t/Y9Fht4HlNEGneOBjaFyhUzFlT2lmRwKHHnqov9Fxxx3nzMAUc2f0zsRLjon0F/JD9aK1IP0pOoLYDiTk0cX+jTfe6E4++eRSVsSpDx2LShNFnmTVFiLtlRHRN2MIPTawuFB2MfnwROWDyI8FI9oQzwMfB2wMMXG42/BuSjuyDjv0RoztsPmy8fWFELhZia2SxAXhgaIzbqLQ0JhG2E3SGu51RpSEyjWd4DDuBhKBl4x7xRKeebyQlOvAAw+MzdZ3OlZPmTdvnu/E0KuOis4666xKOVkY0q7KFuqUQ55nnHGGH/mG56r2ce0GC46nrdZYrErWyXmeBQulyqi8LWBi0EK06rD5in3rW9/yBWYEQHxphNTPi5agU4M23eTnB+7GKIuRCjBLDGxAvkBTmHNDXS0xGO2zzz4+XvRuu+1W+rISb4KogaCCnvSkJ/lAXzhHxBIdNUgIYraj7hgW4daNGgIigmQM/G9YZTEnjjL+z3/+8/1p5IKB7vvf/35ZstJzOISQh59Fy6uKt0KfgsNNDBGaAigeeYa9xiIB45htETN7JB/VSk14cAFl/BFHHJHZCgsSYq6wZx/Dil6wDEONYECZPJ4ywfYCDuW7ij/h+cQaDDCE2L2FAc2ZYqjBPRp3aVnn8/N1Ox/84Ac9L3UWmR6kuqTpWkECbYwkhaz5oV74vC2tTcOtsL2ZcM15+uKORuSZGY0tnwYBPclwQ37GM54x4z6yn2S4WMeSRnCeh9ARGc9a18T7pZmhv4c8/7pm34ofTjLCBc+QGTLGUGdkoQnaxKLm3bS2UvAjz0prIubn7Jpt1SHa7Rq38JYqyvM6/PDDG9P3k0CxU7wM6DMU2KofFqV52rxPrpRDcFLwu4wlc0yIdNqC9GQ0LFZx/Pi5tvnmm+fLzXP8qU99KuBSvqvVZXxeTSsyfR3LExXOCjrl8+irmmn0lGnB3kwjp0wjqCzWmg9LvKMop6A8hTukwyYJ0Lb2PLBtixKxdievjFiZVhvKLC5DyLdueS680cK0ti8IXV58nlM7X9xKR5uni9mhg4GHnEiy8B4xeZvSKPiY5/2Sl7ykc95N9y5elwNQpcxoKyPrsJEJnp2xP2sH67A1Qq+832abbWa3i9oyoKMfAGUT66EaxViJNKrOHvvYx3pvVfqcLqlNh10bSwSsNEp5uWxKzs4R/B9QP9NLCKs4Cnj0j8XpS6UvvM/5vz8MBhrpehA6wPeiTjpImu9inUWvCFZTAvTnseiDc421xqMzN4+nYVl5iSB23XXXVUYwyyvU4Q56PKb9/cRlaFOMUP9PvjbGMabbtDlEOZkaaxDgBBXz58K/uqk5etYioVYJHTnwqqsiPBPbkF4qX0+irOEIw3PfBbFsFWFoUQ3xDoXl74J/Wx7Ftg3zL7300uFhvt82Wl6eUTuhLSs8zz42hzYEFh5sNSowDSQ9hp4+alACUUKUQUIGs5ShLZI8KF/LX3x/au0sVV8KpozqAPOvHyPrKnVDiI1WIXye2CmDoFM+PbEW2hD+9nxFBZ1qk82nlZuwv6eMja2wl21uZDhNk8dsbVENDVvFIxfe/LkAw4rqIYZkNM70Avm8ekgzddZ5tpCnyUpOEfn1cEe66/z+lpatPuRhskzu1KXpSBsbL6KHoQ6kX/YjrTa+A0Ue4bGC/2Q8K12P2sN7tNkXyqpSZhpg5azCEXbYBrH7NsJWZ1h5v36X3hJML6Nf6SrSITM1eTNm9HPDINkBe2RAG1RRpUrEdLzWADI2VvHw5xGupUVHiF4uhnhpySeoUKYvakyWgdKgepGnlb8nYPlhkYxhuTxMLrOxpW7DfPmxVdC+VpfYFaaRs1alyfNh5zCCJ2ox42lbGbgsSc+2+IBbeo1+e9LR1hagx9LYNkZl18NsjhzUqZEUaTCXQlcdNv2EtUlxi3pjLhCD27DuGs1XVrtUJQIOM4x7AJTn1a9+tXiWE+v5sZKCEas4FIf5dq24NejU6aef7qFTWrq+mKTT49mCTmEJ1yhiVlUiuAozxSSw+zCIqRrqgHDaTHjMWAqxvcjG6Mwzz+x5fuy87CK227O1WBs9J3WA+i4k5HDiiSf6kKYEKgqRJ6hhEs2UQJ1cYuCyMznWn2EBgiqK7UOq8k/KeVAuG2+8sZNu3BeZLf1Uqbq2rCunh1fO/KfOtCxZfk66tzwt+Qij2IYwdEh350fZGA6GRagKzGgpHeiwbjOVfIVvzYrPRdsVvQ0VJF1jzwyM1cXD5419QpGCBCkja8Mwjz5UZUnzcxgZw/TDfM7ym07gDjIP5RTuo84y6mqEDeomvEe4v8Yaa9jtpn6LHEIVNIbTD3/4w5kGwz11n6ESkfGuR4DyAmrUURb1tW1RA5RoLkGnelpgjA9QYbz3ve/N0F3SgdrLRIeJHaAtYReho9RILc+q2VyGPtt421aegnmacAdrvaUJt6997WvDZDP2QTVZeqbasSq7GYzmwAnsEiarcIsdy8g6bFAzMuJH/egXjJ/psGX8z8/ZNdu2gQxauSZ5y6pNwJXprE0GwuNnqKJQ38p/IJvRYQOlscRsm14EBATEzvJotYm+ZUYjwmfaoVN9C2iWM5a9uFK7dAqZkrdY/uzYM8RWnm6ltRU6ozQ9xsA64sNg/DfZZJO6pHP+GiNbk1W4BYdtHzqwznJW8cuFxQqMDok8/DAIQ8XZeXg/7GhzjTDMH3nkkaXypy/u6bBZl6xo/JEupVZmIEfCEdIgwH95UmYK5uILOwifYoFR0fAgEFkrHN0V06XjXgkwTbvgggv8S4kaI3yZUI+Agx+UyjoHRhVVhlPp0HvKYWUShLK2KHTolhYnsETVEihD7Jjs8L3okvbaa6+8XewetlXcoC5vNfa8QL6F0R7pVxlAM0gBnEHf1dNh+yG3OjYTGNtbb721tqJFq7Iim9Wmj7k47dCpGBmMWxo+pnz5w+kay0MVdWxtyh2OesNnrm5R1fCBtjzCB+cjv6r7h/p3YIGJqiXw4x//uKcPMDmz5RnokvBoDfnbPh/tWGe6LsszKl501qFtBi/eyy67bEZxeuAE4bJdEpx3aGBBzToiPGFItlJHeK7tPsu/8+uKbGWIrvjF8NHMwy+sSfyE2SJQIjg3xSzZ1LZM8CaUJcgLlnqCcAx6//vf71ceacuP9FVxKKoWqgWlYE5c4f1YwqoOUYCjlC0KwKKndUgI46s3xSmOtcN5jLbUbMOjTN785je7KgcSyzvpW7nze0cedRgzqnLKKaf452DGhT5O4HCnj0NpTp4xnrU6wqGF+C60D8gljllcgUUQJo1YrOKWW27xxSag1HnnnedAj8ygsAsv6k6Ib9BECtaTfyGLlnqm0wqW0sRiKq/j8i5hz/oPlRa6wmEROsxVVlklrxdxFWIdZ4plIpB8mYxwfCijyy+/vDR9E6Y6fK5j40zgd1BWNlyp5wLV6ZYVq7oTEVS1P6NrHGqaCFtXsY0E7WzKNnbXUS2G9dhzzz0ryzi/EuZU/KJJv5hfK9th9CGrf34J/HVItvROeG6u7IMJBhMth6JZ+xHXl9Em0e+GRYxk5fSSswfbzAinHyrLh8yqYiSH+O/wfoyaqwjsuDppf5m2IKpbDBGVjgh9YZB9QvoOY/YSU57ZToN7d1WoCEILEOp4ECLSomxLpSwEZ3NLLLFE6bXwJLHDGfET+dMIF/9JozDGP2W3hTNK6xF25VqDrqenlxNLeHnGPvpqMc1/If4a3TfXBAifkS+dmGwJKLh83ua0cT8wTiQAWiB8ftjHBbiKqkZ94PirKLSxtIn+ZvwIKGZlHOfRG+gCjHT4THSlo8f9PpxNmRzY1gXmMtlVbYFYAtkL+dm+1BmN9ogi39A+Mcpl1Yrlij0uBn8KQzYUefSMsMNVhCXAWr0goyNBskiWU/h1syV0qgKU55nSzsRJoE5f3KYyBKoqEgsNVBHBd8pIxqmy0w5eLGoBEbBMUfFK09WdDEc/cvCpSzrSawREo3xsV1xxRccCAIMSunoWErYgayE/Zi0ErmpLxNRnhla0fcEH3bngfrX9TvF+jPSlKvOnFRbWVcXXLuYb52MLrldaxmIPHlptZfgrXvbHenF8DGwxzL+SQFBAEhgZH5AAiaZLAsURQb8j7DJUEs8U54uEc0ZoRQ+fPZyuioReHYcDSyf1RjFJ1HG4UKw6mag8s52IGQbvn9WVLciZKmhk2/IpkmaGfSrkb/tgg6s8Uov3kfE/0yrypXxoq34QR+jTrSzAdieR2rxPPbA+Khu68BLkhxclJAI0WWdMQHcTFluLEke8WI6rgveE/NL+5EmgzQPWVDviqIfPEPvEHdaiqhl+AUz1MTYWn7UwDwH3UX0w1YaI4Ghu8KRrG1fZygyszPwSuIfxt+vjssXJKJSH7WtFn86KyCANNUjo8Wr3wRtaMxmvkgkHbdwcAzhqGoJ9hZBQy0vQN4WXba0GsYodfPDBed212oydnqhtm/dpRodNTbXcUi4EwfQyRha/+tWvMiLQYcFF2Lvuuqt/mVhtxoTPjRXIx3+NaYiykdJESTIVtlQCbR6wUgbBSV7wqsUIeIaK3pYE+69CF5CekaU9j2wJudoviiWcAYzz6E1wsAwP1LDe7Dd5fwbNEL2rOPQZuvziveyY9uLjKnhpJuNxablIi9fk29/+9oyyD0LYyOzek6i/pu5t3qfSDptRDR5IxCM2YdiWeMuKgJbLmNgORXgNgZyKoS7zDGln4iXQ5gGLrSwGRWKWsHKJPWvhljgWodftJZdcUpteelzfYfEs90uM/KwMir44gw0qB6Cr0uX6GUG/H4YZjPs4QdwXnIqQn3VitNOw6Nprr82E0sgY0JV9LExu4ZYYLhgV8TTtwkuWGZD1UeM8A2pqgzbvUykyXVMXvyCoAv+4s88+2y9uyjmcMrSMkUO5b8SK43p5vHECRwoU5gDXY2A5xiNtkwSktnD8cDTCYQVnFxwhIIyTGKQ0gs4FhYGNn9QU3oEHxxbS43RAehbzLcJU88yROzzXRhpV2q7fEg4Yg6bQUH7xYMpBiEzel66Msj03bDhghRV+kOxGPlQn7+ywiL6AH7BHHJqkKnXqhD3EE0ACcE/6AAyX/IBqsiJUl2XSGrJO6376Kq677roO2OXUU1Pvn64nCRQl0GZEUMw7Kcfh6I0Zo9lnUOHg2KCOISPmBi7FYXwTVAajJkb9lA87wDRTOAOaVP017dPmfSodYU/9VypVMEmgQQLh6E3IBj+KBiaICzFQP4WXdSyKwGhW/gieGyPrYTotNRQ5v6yO2u8zy5hmkm0tr15xBpRfmLKd1GFPWYOm6nQjgSL+mrgXqDxks/HqP1SDEFN94u0Qh0cQN7fSSit1U4ABuAgx44TwqvQYHYD12GTVTGfq8Ncxwk0ddoyUUpoeCYxCR9tTgFk4CPXXdNbo0NGRygvN62KtCIyoZYDz+nMZ/ez0yLbo1ufNmzfDqW1kBRrSjQkaZcsSTrr+WlqRaCmlDjtaVCmhSSA0OnOONT2niULvOeqF+gMDpnDNTq7aM6pqhrUZF2b5BIY+vDn5iOyxxx6zfPfZvV34QZ10dYiW3+sRXp2xfHhm5J4ipINpkgAhLENiodtpIvTX5iLPxwl0ClNwwQ4dqCgZuHJ0wrjUm1GajKAerSFcu9MSXuNStKGUY1r01wQnk5E4l9Hyyy/vUU75ieIOVspESQJtJIAHYugmjrOEoHhtWIx1WltfVO9KBvoAfDVrnSoqoEdfcF6QwrGqg3n8gWUfBHs+VpWqKMykeKBWFL/ndLgSEs8V6+PWUanjTF2GdC1JAAmce+65Gc4KPGT8CGNQtkLGJEqLNR+tXqH3nFQOPR8qvH+NiGxHSIZRES/+9ttvn+FCPu0URlAMPVBZ0HccYJUx8mcQwKroodOR7CSNDkWpw46RbkpTKgGtipEJFZF3bnRyQk/4ZaQI9E8ciUkjcNaKm+3rFOKvrR5h7JMQ50wsDdytEw1fAgceeGD+zIX4a55FPlrjSgTCkz0k06pFmSKj5nXgvVFU06j1ZlOHPa6tOyHlYnrKQ0gUtmJgIDq3SSMiytnompALRRIiIb9uUeoICoXbNRHnEg1fAttss03eBlr6zd/Q4r4cc8wxwy9An3ewgYA9X4QRYLFxZgyxlFAikl6i/iWARRsHEn64lWtVbe+iTOxqBQbrn/GIcob46zL0AetBXnXVVd4Qyeo4kOJ4eFifAqKNqNRz67asL2pkMfxpA9lSPBbero3bFsglbvsYFolZDn6/DhFSVv7UYZdJJZ3rSwK8MJMeQD6EixWXvEMoOM8oIqXTzMKdddZZTsGHHEvhaTbhtPJJX3JLmdpJgEVRDJkkW4p3VmIxhV122cUpmmg7ZrOYGpTRwBQ7FE/pkgTmggQIx6qXKlOgop4FOazuLELMUmOh+of48P0E3zeeadtOAtYGoJNoK360gYJQtWM0ganno8wD9/qJQZLAlEgAJyBUHkQClBGxslZEiZPu0bHwMYsAdxmFrvKm6UKPBAQv9Z6ntAEL8c6FNkgdds8jkA6SBJIEkgTGVwLJ03F82yaVLEkgSSBJoEcCqcPuEUc6SBJIEkgSGF8JpA57fNsmlSxJIEkgSaBHAqnD7hFHOkgSSBJIEhhfCfwfhQPW0ywH3c4AAAAASUVORK5CYII=;" vertex="1" parent="1">
          <mxGeometry x="333" y="220" width="75" height="14.49" as="geometry" />
        </mxCell>
      </root>
    </mxGraphModel>
  </diagram>
</mxfile>
